<svg width="18" height="18" viewBox="0 0 18 18" fill="none" xmlns="http://www.w3.org/2000/svg">
<path fill-rule="evenodd" clip-rule="evenodd" d="M17.6764 15.5953C17.1208 17.2837 14.944 18.1258 13.3888 17.9854C11.2648 17.7934 8.95356 16.6668 7.19916 15.426C4.62036 13.602 2.20475 10.7806 0.797155 7.78656C-0.197645 5.67096 -0.420843 3.06984 1.05876 1.14144C1.60596 0.428639 2.19756 0.0479488 3.08676 0.0035488C4.32036 -0.0564512 4.49316 0.649271 4.91676 1.74847C5.23236 2.57047 5.65355 3.40897 5.88875 4.26097C6.32915 5.85097 4.78956 5.91743 4.59516 7.21702C4.47396 8.03662 5.46756 9.13575 5.91636 9.72015C6.79596 10.865 7.85316 11.8523 9.04595 12.6035C9.72875 13.0343 10.8316 13.8107 11.614 13.3823C12.8188 12.7223 12.7048 10.6908 14.3896 11.3784C15.262 11.7336 16.1068 12.2462 16.9396 12.695C18.2272 13.3874 18.1672 14.1049 17.6764 15.5953C18.0436 14.4817 17.3092 16.7089 17.6764 15.5953Z" fill="white"/>
</svg>
