<svg width="27" height="26" viewBox="0 0 27 26" fill="none" xmlns="http://www.w3.org/2000/svg">
<path d="M17.1454 22.9715C16.3654 23.2215 15.5554 23.4215 14.7354 23.5415C13.9154 23.6615 13.0754 23.7015 12.2454 23.6415C10.2854 23.5115 8.35543 22.8615 6.72543 21.7415C5.79543 21.0915 4.94543 20.3215 4.24543 19.4315C4.15543 19.3215 4.06543 19.2115 3.98543 19.0915L3.73543 18.7415C3.58543 18.5015 3.42543 18.2715 3.28543 18.0215C3.13543 17.7815 3.01543 17.5215 2.88543 17.2715L2.70543 16.8815C2.64543 16.7515 2.59543 16.6215 2.54543 16.4915C2.33543 15.9515 2.16543 15.4015 2.05543 14.8415C1.93543 14.2815 1.84543 13.7115 1.81543 13.1415C1.77543 12.5815 1.78543 12.0315 1.84543 11.4815C1.85543 11.3415 1.86543 11.2115 1.89543 11.0715L1.95543 10.6615C2.01543 10.3915 2.05543 10.1215 2.12543 9.8515C2.16543 9.7415 2.19543 9.6915 2.21543 9.7215C2.22543 9.7615 2.23543 9.8315 2.23543 9.9115C2.23543 9.9515 2.23543 10.0015 2.22543 10.0415C2.21543 10.1315 2.19543 10.2315 2.18543 10.3415L2.16543 10.4715C2.16543 10.4715 2.14543 10.6115 2.14543 10.6015C2.14543 10.6615 2.16543 10.6915 2.18543 10.6815C2.25543 10.6515 2.30543 10.7015 2.33543 10.9015C2.33543 10.9715 2.34543 11.0315 2.34543 11.1115C2.34543 11.1815 2.32543 11.2715 2.30543 11.3715C2.28543 11.4615 2.26543 11.5615 2.25543 11.6615C2.25543 11.7115 2.24543 11.7615 2.23543 11.8215C2.23543 11.8815 2.23543 11.9415 2.23543 12.0015C2.23543 12.0815 2.23543 12.1615 2.23543 12.2615C2.23543 12.3115 2.23543 12.3515 2.23543 12.4015C2.23543 12.4515 2.23543 12.4915 2.23543 12.5415C2.20543 12.7615 2.23543 12.8715 2.27543 12.9915C2.31543 13.1015 2.35543 13.2115 2.34543 13.4215C2.30543 13.7315 2.29543 14.1115 2.45543 14.4815C2.65543 14.9215 2.75543 15.4515 2.93543 15.9915C3.04543 16.3415 3.15543 16.6715 3.28543 16.9915C3.33543 17.0815 3.38543 17.1615 3.44543 17.2415C3.49543 17.3215 3.55543 17.4115 3.60543 17.5015C3.65543 17.5915 3.71543 17.6715 3.77543 17.7715C3.83543 17.8615 3.88543 17.9615 3.94543 18.0615C4.08543 18.3115 4.19543 18.4415 4.30543 18.5315C4.40543 18.6215 4.49543 18.6815 4.60543 18.7715C4.95543 19.2515 4.58543 18.9615 4.67543 19.1715C4.71543 19.2715 4.79543 19.3715 4.89543 19.4715C4.95543 19.5215 5.00543 19.5615 5.04543 19.5915C5.12543 19.6515 5.21543 19.6915 5.29543 19.7415C5.38543 19.7915 5.46543 19.8415 5.55543 19.8915C5.67543 19.9615 5.81543 20.0915 5.93543 20.2315C5.96543 20.2915 6.01543 20.3415 6.07543 20.4115C6.13543 20.4815 6.21543 20.5515 6.28543 20.6215C6.35543 20.6915 6.43543 20.7615 6.49543 20.8215C6.55543 20.8815 6.59543 20.9415 6.64543 20.9915C6.69543 21.0515 6.74543 21.1015 6.82543 21.1615C6.95543 21.2315 7.02543 21.2615 7.10543 21.2815C7.22543 21.3015 7.38543 21.3815 7.54543 21.4415C8.06543 21.7115 8.59543 21.9415 9.14543 22.1415C9.28543 22.1915 9.41543 22.2415 9.56543 22.2915C9.70543 22.3315 9.84543 22.3815 9.98543 22.4315C10.1254 22.4715 10.2754 22.5115 10.4154 22.5615C10.5554 22.6015 10.7054 22.6415 10.8554 22.6915C10.8954 22.7015 10.9454 22.7215 10.9854 22.7215C11.0354 22.7215 11.0754 22.7415 11.1254 22.7415C11.2554 22.7515 11.3854 22.7715 11.5154 22.7915C11.6454 22.8015 11.7754 22.8115 11.8954 22.8315C12.0254 22.8515 12.1554 22.8515 12.2754 22.8715L12.4654 22.8915H12.5654L12.6654 22.9015L13.0454 22.9215C13.1754 22.9215 13.3054 22.9215 13.4354 22.9215H13.6254C13.6854 22.9215 13.7554 22.9215 13.8154 22.9215C13.9454 22.9215 14.0754 22.9115 14.1954 22.9015C14.4454 22.8715 14.6854 22.8515 14.9354 22.8015C15.0554 22.7815 15.1854 22.7615 15.3054 22.7415L15.6654 22.6615C15.7854 22.6415 15.9054 22.6015 16.0254 22.5715C16.1454 22.5415 16.2654 22.5115 16.3854 22.4715C16.5054 22.4415 16.6254 22.4015 16.7354 22.3715C16.8554 22.3315 16.9654 22.2915 17.0854 22.2515C17.9154 21.9715 18.7254 21.5315 19.4654 21.0415C20.0154 20.6715 20.5354 20.2415 20.9854 19.8815C21.0454 19.8515 21.1054 19.8115 21.1754 19.7515C21.2454 19.6915 21.3154 19.6315 21.3954 19.5515C21.5654 19.3815 21.7054 19.2215 21.8554 19.0715C22.2254 18.6415 22.5554 18.2115 22.8554 17.7715C22.9354 17.6615 22.9954 17.5515 23.0754 17.4415C23.1154 17.3815 23.1454 17.3315 23.1854 17.2815C23.2254 17.2315 23.2554 17.1715 23.2854 17.1115C23.3554 17.0015 23.4154 16.8915 23.4854 16.7815C23.5454 16.6715 23.6054 16.5515 23.6654 16.4415C23.8954 16.0115 23.6254 16.6915 23.7454 16.5315C23.8754 16.3415 23.9854 16.0915 24.1154 15.8115C24.1754 15.6715 24.2254 15.5215 24.2854 15.3815C24.3454 15.2315 24.3854 15.0915 24.4454 14.9415C24.4754 14.8415 24.5154 14.7515 24.5454 14.6615L24.6154 14.3615L24.6554 14.3915C24.6454 14.5415 24.6254 14.6915 24.5854 14.8415C24.5454 14.9915 24.5054 15.1315 24.4654 15.2815C24.4054 15.4215 24.3554 15.5915 24.3054 15.7615C24.2954 15.8015 24.2754 15.8515 24.2654 15.8915C24.2454 15.9315 24.2354 15.9715 24.2154 16.0115C24.1854 16.0915 24.1554 16.1715 24.1154 16.2315C23.8454 16.8715 23.5254 17.4715 23.1454 18.0515C22.5654 18.9615 21.8554 19.7815 21.0454 20.4915C20.9854 20.5415 20.8754 20.6515 20.8654 20.6815C20.8254 20.7515 20.8854 20.7315 21.0054 20.6415C21.4554 20.3015 21.8954 19.9215 22.3354 19.3915C23.1454 18.4015 23.8054 17.3615 24.2854 16.2215C24.7154 15.2015 25.0254 14.3315 25.2354 13.4115C25.3354 12.9915 25.4354 12.7315 25.5354 12.4515C25.6054 12.2615 25.6754 12.4915 25.7054 12.9215C25.7154 13.0715 25.7054 13.2615 25.7154 13.3715C25.7954 14.1815 25.7054 15.1215 25.4454 16.0615C25.4254 16.1215 25.4154 16.1815 25.3954 16.2415C25.3754 16.3015 25.3554 16.3615 25.3354 16.4215C25.2954 16.5415 25.2554 16.6515 25.2154 16.7715C25.1754 16.8915 25.1254 17.0015 25.0854 17.1215C25.0354 17.2415 24.9954 17.3515 24.9454 17.4715C24.7354 17.9315 24.5154 18.3815 24.2454 18.8115C23.9854 19.2615 23.6854 19.6815 23.3754 20.0915C23.0554 20.4915 22.7254 20.8915 22.3554 21.2515C22.2754 21.3215 22.2054 21.3915 22.1254 21.4715C22.0454 21.5415 21.9754 21.6215 21.8954 21.6915C21.8154 21.7615 21.7454 21.8415 21.6654 21.9115C21.5854 21.9815 21.5054 22.0515 21.4254 22.1215C21.1554 22.3315 21.0854 22.4415 20.9254 22.6015C20.5754 22.9115 20.1854 23.1415 19.7954 23.3715C19.6554 23.4515 19.5154 23.5215 19.3754 23.5915L19.1654 23.7015L18.9554 23.8015C18.8054 23.8615 18.6554 23.9415 18.5054 24.0015C18.3554 24.0615 18.1954 24.1315 18.0454 24.2015C17.2954 24.4915 16.5154 24.7015 15.7154 24.8715C14.6854 25.0515 13.6454 25.1215 12.5954 25.0915C11.5454 25.0615 10.5054 24.9015 9.49543 24.6015C8.69543 24.3815 7.93543 24.0715 7.21543 23.6815C6.49543 23.2915 5.81543 22.8315 5.16543 22.3315C4.68543 21.9315 4.20543 21.5215 3.78543 21.0615C3.67543 20.9515 3.57543 20.8315 3.47543 20.7115C3.37543 20.5915 3.26543 20.4715 3.17543 20.3515C3.08543 20.2315 2.98543 20.1015 2.89543 19.9815C2.80543 19.8515 2.72543 19.7215 2.63543 19.5915C2.55543 19.4915 2.48543 19.3915 2.41543 19.2915C2.34543 19.1915 2.27543 19.0815 2.20543 18.9815C2.14543 18.8715 2.07543 18.7615 2.01543 18.6515C1.95543 18.5415 1.88543 18.4315 1.83543 18.3115L1.66543 17.9715C1.60543 17.8615 1.55543 17.7415 1.50543 17.6215C1.45543 17.5015 1.39543 17.3915 1.35543 17.2715C1.30543 17.1515 1.26543 17.0315 1.21543 16.9115C0.515433 15.1015 0.235433 13.1015 0.455433 11.2115C0.575433 10.1815 0.795433 9.1615 1.13543 8.1915C1.17543 8.0715 1.22543 7.9515 1.27543 7.8315L1.41543 7.4715L1.57543 7.1215L1.65543 6.9415C1.68543 6.8815 1.71543 6.8315 1.74543 6.7715L1.92543 6.4315C1.98543 6.3215 2.05543 6.2115 2.11543 6.1015C2.24543 5.8815 2.39543 5.6715 2.53543 5.4615C2.59543 5.3615 2.67543 5.2715 2.74543 5.1715C2.81543 5.0715 2.88543 4.9715 2.95543 4.8715C3.02543 4.7715 3.10543 4.6715 3.17543 4.5715C3.24543 4.4715 3.32543 4.3715 3.40543 4.2815C3.60543 4.0515 3.74543 3.9215 3.89543 3.8415C3.97543 3.7915 4.02543 3.7615 4.08543 3.6915C4.11543 3.6615 4.14543 3.6215 4.18543 3.5615C4.22543 3.5115 4.27543 3.4415 4.33543 3.3615C4.35543 3.3315 4.36543 3.3015 4.37543 3.2915C4.45543 3.2215 4.53543 3.1415 4.62543 3.0615C4.71543 2.9915 4.79543 2.9115 4.87543 2.8315C5.04543 2.6715 5.22543 2.5315 5.39543 2.3815C5.48543 2.3115 5.57543 2.2415 5.66543 2.1715C5.75543 2.1015 5.84543 2.0415 5.94543 1.9815C6.13543 1.8615 6.32543 1.7615 6.52543 1.6715C6.65543 1.6015 6.77543 1.5315 6.89543 1.4715C6.95543 1.4415 7.01543 1.4115 7.07543 1.3815C7.13543 1.3515 7.19543 1.3315 7.25543 1.3015C7.37543 1.2515 7.49543 1.2015 7.60543 1.1515C7.72543 1.1015 7.83543 1.0715 7.95543 1.0315C8.06543 0.991504 8.18543 0.951504 8.29543 0.921504C8.40543 0.891504 8.51543 0.861504 8.62543 0.831504C8.67543 0.821504 8.73543 0.801504 8.78543 0.791504C8.83543 0.781504 8.89543 0.771504 8.94543 0.761504C9.05543 0.741504 9.16543 0.721504 9.27543 0.701504C9.39543 0.671504 9.49543 0.651504 9.57543 0.631504C9.65543 0.601504 9.71543 0.571504 9.78543 0.541504C9.85543 0.501504 9.93543 0.471504 10.0154 0.441504C10.0954 0.411504 10.1754 0.381504 10.2754 0.351504C10.3654 0.321504 10.4654 0.301504 10.5654 0.271504C10.6754 0.251504 10.7854 0.231504 10.9154 0.211504C11.0254 0.201504 11.1254 0.181504 11.2354 0.171504C11.3454 0.161504 11.4554 0.141504 11.5654 0.131504C11.7854 0.101504 12.0154 0.0915039 12.2354 0.0615039C12.3954 0.0415039 12.5454 0.0415039 12.6954 0.0415039C12.8354 0.0415039 12.9654 0.0415039 13.0954 0.0615039C13.3554 0.0815039 13.5954 0.121504 13.8454 0.161504C14.2154 0.231504 14.0554 0.241504 14.0354 0.281504C14.0154 0.311504 13.9154 0.331504 13.8054 0.331504C13.6954 0.331504 13.5654 0.331504 13.4854 0.321504C13.2454 0.281504 13.0254 0.261504 12.8154 0.281504C12.7054 0.281504 12.5954 0.291504 12.4854 0.301504C12.3754 0.301504 12.2654 0.331504 12.1554 0.351504C11.9654 0.371504 11.5154 0.431504 11.0554 0.521504C10.8254 0.571504 10.5954 0.611504 10.3954 0.661504C10.1954 0.711504 10.0254 0.751504 9.90543 0.781504C9.76543 0.811504 9.63543 0.851504 9.51543 0.891504C9.39543 0.931504 9.28543 0.981504 9.18543 1.0315C9.09543 1.0815 9.03543 1.1315 9.02543 1.1715C9.00543 1.2115 9.19543 1.1715 9.33543 1.1215C10.1754 0.841504 11.0554 0.661504 11.9354 0.581504C12.3754 0.541504 12.8254 0.521504 13.2654 0.531504C13.7054 0.531504 14.1554 0.571504 14.5954 0.631504L14.7954 0.661504L14.9954 0.691504C15.1254 0.711504 15.2554 0.741504 15.3954 0.761504C15.6254 0.921504 14.9954 0.741504 14.8554 0.761504C14.1754 0.681504 13.4954 0.651504 12.8154 0.681504C12.1354 0.711504 11.4554 0.781504 10.7754 0.911504C10.5554 0.951504 10.3354 1.0115 10.1254 1.0715C9.91543 1.1415 9.70543 1.2015 9.49543 1.2815C9.39543 1.3215 9.28543 1.3615 9.18543 1.4015L9.03543 1.4615L8.88543 1.5215C8.78543 1.5615 8.67543 1.6015 8.57543 1.6515C8.47543 1.6915 8.36543 1.7415 8.26543 1.7815C8.20543 1.7915 8.15543 1.7915 8.08543 1.8115C8.01543 1.8315 7.93543 1.8615 7.80543 1.9515C7.69543 2.0315 7.57543 2.1015 7.45543 2.1815C7.33543 2.2615 7.20543 2.3415 7.05543 2.4315C6.33543 2.8615 5.67543 3.3915 5.06543 3.9615C4.60543 4.3915 4.19543 4.8615 3.83543 5.3615C3.76543 5.4615 3.69543 5.5615 3.62543 5.6615L3.41543 5.9615L3.22543 6.2715L3.12543 6.4215L3.03543 6.5815L2.85543 6.8915L2.68543 7.2115C2.56543 7.4215 2.47543 7.6515 2.36543 7.8715C2.08543 8.4815 1.89543 9.1715 1.77543 9.8315C1.75543 9.9115 1.74543 9.9915 1.72543 10.0715C1.70543 10.1415 1.70543 10.2215 1.68543 10.2915C1.65543 10.4315 1.62543 10.5515 1.57543 10.6715C1.52543 10.8215 1.47543 11.0115 1.48543 11.1915C1.48543 11.3215 1.49543 11.4615 1.48543 11.6015C1.48543 11.6715 1.48543 11.7415 1.47543 11.8215C1.47543 11.8915 1.47543 11.9715 1.47543 12.0515C1.47543 12.2115 1.46543 12.3815 1.47543 12.5415C1.47543 12.7015 1.48543 12.8715 1.49543 13.0315C1.50543 13.1915 1.52543 13.3615 1.53543 13.5215C1.53543 13.6015 1.55543 13.6815 1.56543 13.7615C1.57543 13.8415 1.58543 13.9215 1.60543 13.9915C1.61543 14.0715 1.62543 14.1515 1.64543 14.2215C1.65543 14.3015 1.67543 14.3715 1.68543 14.4515C1.71543 14.6015 1.73543 14.7615 1.77543 14.9115C1.80543 15.0615 1.84543 15.2115 1.87543 15.3615C1.91543 15.5115 1.96543 15.6615 2.01543 15.8015C2.23543 16.4315 2.46543 17.0915 2.76543 17.6715C2.99543 18.1215 3.26543 18.5415 3.53543 18.9615C3.68543 19.1615 3.82543 19.3715 3.98543 19.5715C4.06543 19.6715 4.13543 19.7715 4.22543 19.8615L4.47543 20.1415C4.81543 20.5115 5.16543 20.8715 5.55543 21.1915C5.74543 21.3615 5.94543 21.5015 6.14543 21.6515C6.24543 21.7215 6.35543 21.7915 6.45543 21.8615C6.55543 21.9315 6.66543 22.0015 6.76543 22.0615C6.94543 22.1615 7.12543 22.2815 7.29543 22.3815C7.87543 22.7415 8.49543 23.0315 9.13543 23.2615C9.77543 23.4815 10.4354 23.6415 11.0954 23.7415C11.5554 23.8115 12.0154 23.8515 12.4654 23.8815C12.5854 23.8815 12.6954 23.8815 12.8154 23.8815C12.9354 23.8815 13.0454 23.8815 13.1654 23.8815H13.5154L13.6854 23.8615H13.8554C14.7754 23.7815 15.6854 23.6215 16.5654 23.3415C16.7254 23.2715 16.9054 23.2115 17.0854 23.1415C17.2554 23.0715 17.4254 23.0015 17.5654 22.9215C17.4154 22.9715 17.2854 22.9915 17.1554 23.0315L17.1454 22.9715Z" fill="#209F2E"/>
<path d="M22.2054 21.8416C21.6054 22.3916 20.9654 22.9016 20.2854 23.3616C19.5554 23.8516 18.7554 24.2616 17.9454 24.5616C17.2654 24.8116 16.5654 25.0116 15.8454 25.1416C15.1354 25.2716 14.4154 25.3516 13.6854 25.3816C12.9654 25.4016 12.2354 25.3616 11.5154 25.2816C10.7954 25.1916 10.0754 25.0516 9.37542 24.8416C9.20542 24.8016 9.04542 24.7316 8.88542 24.6716C8.75542 24.6116 8.69542 24.5616 8.68542 24.5316C8.71542 24.5116 8.78542 24.5116 8.89542 24.5316C9.03542 24.5716 9.16542 24.6116 9.30542 24.6616C9.38542 24.6616 9.54542 24.7616 9.60542 24.7316C9.51542 24.7216 9.41542 24.6916 9.31542 24.6516C9.18542 24.5916 9.14542 24.5616 9.17542 24.5416C9.21542 24.5416 9.26542 24.5416 9.31542 24.5516C9.37542 24.5516 9.43542 24.5716 9.49542 24.5816C10.2754 24.7716 11.0954 24.9716 11.9054 25.0016C12.0254 25.0016 12.1554 25.0016 12.2754 25.0216H12.4554C12.5154 25.0416 12.5754 25.0416 12.6354 25.0416C12.7554 25.0516 12.8754 25.0616 13.0054 25.0616C13.1254 25.0616 13.2554 25.0616 13.3754 25.0616C13.5054 25.0616 13.6254 25.0616 13.7554 25.0616C13.8854 25.0616 14.0054 25.0416 14.1354 25.0316C14.6454 24.9916 15.1554 24.9216 15.6454 24.8516C16.2854 24.7616 16.9754 24.5316 17.5954 24.3516C17.8254 24.2816 18.0554 24.2016 18.2854 24.1016C18.4054 24.0516 18.5154 24.0016 18.6354 23.9516C18.7454 23.9016 18.8654 23.8416 18.9754 23.7916C19.1954 23.7016 19.4154 23.5716 19.6354 23.4516C19.6854 23.4216 19.7454 23.4016 19.7954 23.3716C19.8454 23.3416 19.8954 23.3116 19.9554 23.2816C20.0554 23.2216 20.1654 23.1616 20.2654 23.1016C20.3754 23.0416 20.4754 22.9716 20.5754 22.9016C20.6754 22.8316 20.7854 22.7616 20.8854 22.6916C20.9854 22.6116 21.0854 22.5416 21.1854 22.4616C21.2354 22.4216 21.2854 22.3816 21.3354 22.3416C21.3854 22.3016 21.4354 22.2616 21.4854 22.2216C21.5854 22.1416 21.6754 22.0616 21.7754 21.9916C21.8654 21.9216 21.9554 21.8416 22.0454 21.7816C22.6154 21.2716 23.1554 20.7016 23.6254 20.0916C23.5754 20.2316 23.4954 20.3716 23.3954 20.5316C23.3454 20.6016 23.2954 20.6816 23.2354 20.7616C23.1754 20.8316 23.1154 20.9116 23.0454 20.9816C22.9754 21.0516 22.9154 21.1316 22.8454 21.2016C22.7754 21.2716 22.7054 21.3416 22.6254 21.4116C22.5554 21.4816 22.4854 21.5516 22.4154 21.6216C22.3454 21.6916 22.2754 21.7616 22.2054 21.8216V21.8416Z" fill="#209F2E"/>
<path d="M2.17543 9.87157C2.17543 9.87157 2.14543 9.85157 2.12543 9.85157C2.23543 9.25157 2.40543 8.66157 2.68543 8.13157C2.73543 8.04157 2.74543 8.05157 2.75543 8.09157C2.77543 8.15157 2.84543 7.94157 2.77543 8.12157C2.84543 8.02157 2.91543 7.87157 2.98543 7.73157C3.01543 7.67157 3.04543 7.61157 3.07543 7.55157C3.10543 7.49157 3.13543 7.44157 3.17543 7.38157C3.24543 7.27157 3.30543 7.15157 3.37543 7.03157C3.44543 6.91157 3.51543 6.79157 3.58543 6.67157C3.65543 6.55157 3.73543 6.44157 3.81543 6.34157C3.85543 6.29157 3.89543 6.24157 3.93543 6.19157C3.97543 6.14157 4.01543 6.10157 4.05543 6.06157C4.10543 6.00157 4.15543 5.94157 4.19543 5.89157C4.27543 5.78157 4.32543 5.75157 4.33543 5.79157C4.29543 5.90157 4.19543 6.06157 4.13543 6.19157L4.05543 6.29157L3.98543 6.39157C3.55543 6.99157 3.32543 7.60157 3.06543 8.25157C3.00543 8.46157 2.96543 8.50157 2.91543 8.53157C2.84543 8.62157 2.79543 8.73157 2.75543 8.84157C2.71543 8.95157 2.68543 9.06157 2.66543 9.18157C2.64543 9.30157 2.62543 9.41157 2.60543 9.52157C2.59543 9.58157 2.57543 9.63157 2.56543 9.69157C2.55543 9.75157 2.53543 9.80157 2.51543 9.85157C2.47543 9.94157 2.44543 9.99157 2.41543 9.99157C2.39543 9.96157 2.38543 9.92157 2.36543 9.87157C2.36543 9.85157 2.35543 9.82157 2.34543 9.80157C2.31543 9.70157 2.24543 9.80157 2.18543 9.87157H2.17543Z" fill="#209F2E"/>
<path d="M4.60539 4.98148C4.74539 4.78148 4.90539 4.60148 5.06539 4.41148C5.14539 4.32148 5.23539 4.24148 5.32539 4.15148C5.41539 4.07148 5.49539 3.98148 5.59539 3.91148L5.87539 3.68148C5.97539 3.60148 6.07539 3.54148 6.16539 3.47148C6.35539 3.32148 6.56539 3.20148 6.76539 3.07148C6.81539 3.03148 6.88539 3.02148 6.91539 3.02148C6.97539 3.02148 6.84539 3.13148 6.75539 3.20148C6.16539 3.62148 5.60539 4.09148 5.10539 4.61148C4.84539 4.86148 4.59539 5.16148 4.60539 4.98148Z" fill="#209F2E"/>
<path d="M8.84544 24.5915L8.88544 24.6715C8.61544 24.5815 8.35544 24.4815 8.08544 24.3815C7.95544 24.3315 7.82544 24.2715 7.69544 24.2115C7.56544 24.1515 7.43544 24.0915 7.31544 24.0115C7.20544 23.9615 7.08544 23.9115 6.96544 23.8515C6.79544 23.7315 6.83544 23.7115 6.95544 23.7415C7.05544 23.7815 7.15544 23.8215 7.26544 23.8715C7.15544 23.8115 7.04544 23.7615 6.94544 23.7215C6.77544 23.6415 6.59544 23.5515 6.41544 23.4415C6.28544 23.3615 6.16544 23.2715 6.06544 23.2015C5.96544 23.1215 5.87544 23.0515 5.82544 22.9815C5.82544 22.9515 5.86544 22.9615 5.95544 23.0115C6.21544 23.1215 6.52544 23.3015 6.84544 23.4515C6.90544 23.4815 6.97544 23.5115 7.04544 23.5515C7.11544 23.5815 7.17544 23.6115 7.24544 23.6415C7.58544 23.8115 7.93544 23.9715 8.28544 24.1215C8.39544 24.1615 8.49544 24.2115 8.59544 24.2515C8.64544 24.2715 8.69544 24.2915 8.74544 24.3215C8.79544 24.3415 8.84544 24.3615 8.88544 24.3815C8.99544 24.4315 9.05544 24.4715 9.05544 24.5015C8.99544 24.5215 8.79544 24.4715 8.70544 24.4715C8.70544 24.5015 8.76544 24.5315 8.85544 24.5815L8.84544 24.5915Z" fill="#209F2E"/>
<path d="M4.60541 4.98157C4.76541 4.85157 4.93541 4.73157 5.10541 4.61157V4.63157C4.98541 4.79157 4.85541 4.93157 4.72541 5.09157C4.65541 5.17157 4.59541 5.24157 4.52541 5.31157C4.46541 5.39157 4.39541 5.46157 4.32541 5.54157C4.26541 5.61157 4.19541 5.69157 4.14541 5.76157C4.04541 5.95157 3.94541 6.10157 3.85541 6.21157C3.76541 6.32157 3.68541 6.40157 3.60541 6.45157C3.56541 6.42157 3.53541 6.37157 3.71541 6.09157C3.98541 5.69157 4.28541 5.29157 4.61541 4.98157H4.60541Z" fill="#209F2E"/>
<path d="M4.27543 5.8615C4.27543 5.8615 4.22543 5.8815 4.19543 5.8915C4.50543 5.4815 4.82543 5.0815 5.18543 4.7215C5.54543 4.3615 5.92543 4.0115 6.33543 3.7015C6.51543 3.5615 6.56543 3.5715 6.41543 3.7415C6.30543 3.8315 6.19543 3.9115 6.09543 4.0015L5.78543 4.2815C5.58543 4.4715 5.38543 4.6615 5.19543 4.8615C5.01543 5.0315 4.84543 5.2215 4.67543 5.4115C4.53543 5.5715 4.39543 5.7915 4.26543 5.8615H4.27543Z" fill="#209F2E"/>
<path d="M6.89542 23.7914C7.03542 23.8714 7.16542 23.9414 7.30542 24.0214C7.11542 23.9414 6.91542 23.8714 6.73542 23.7614C5.43542 23.0514 4.25542 22.1114 3.30542 20.9814H3.34542L3.44542 21.0714C3.47542 21.1114 3.50542 21.1414 3.54542 21.1814C3.97542 21.5314 4.41542 21.9414 4.90542 22.3914C5.04542 22.5214 5.19542 22.6514 5.35542 22.7814C5.52542 22.9014 5.69542 23.0214 5.87542 23.1314C6.05542 23.2414 6.23542 23.3514 6.40542 23.4614C6.57542 23.5614 6.74542 23.6714 6.89542 23.7914Z" fill="#209F2E"/>
<path d="M1.52545 18.4015C1.45545 18.2915 1.39545 18.1715 1.32545 18.0515C1.26545 17.9315 1.20545 17.8115 1.14545 17.6915C1.02545 17.4515 0.935445 17.2015 0.835445 16.9415C0.785445 16.8115 0.745445 16.6815 0.705445 16.5615C0.665445 16.4315 0.615445 16.3015 0.585445 16.1715C0.515445 15.9115 0.435445 15.6515 0.375445 15.3815C0.305445 15.0915 0.345445 15.0615 0.375445 15.0415C0.405445 15.0915 0.435445 15.1815 0.465445 15.3215C0.465445 15.4415 0.495445 15.5415 0.525445 15.6415C0.555445 15.7415 0.595445 15.8315 0.635445 15.9215C0.675445 16.0615 0.705445 16.2015 0.755445 16.3315C0.835445 16.5915 0.915445 16.8515 1.01545 17.0915C1.06545 17.2115 1.11545 17.3415 1.17545 17.4615L1.34545 17.8215C1.40545 17.9815 1.48545 18.1215 1.52545 18.2315C1.56545 18.3415 1.57545 18.4115 1.52545 18.3915V18.4015Z" fill="#209F2E"/>
<path d="M22.2054 21.8414C22.4154 21.6414 22.6054 21.4214 22.8054 21.2114L23.0854 20.8814L23.2254 20.7114L23.3554 20.5414C23.5054 20.3514 23.6254 20.1814 23.6254 20.0914C23.7054 19.9714 23.7854 19.8514 23.8654 19.7414C23.9454 19.6314 24.0254 19.5214 24.1054 19.4314C24.1354 19.4014 24.1754 19.3514 24.1754 19.3614C24.1754 19.3914 24.1754 19.4414 24.1354 19.5014C24.0954 19.5614 24.0554 19.6414 24.0054 19.7314C23.9454 19.8114 23.8854 19.9114 23.8154 20.0114C23.7454 20.1114 23.6754 20.2214 23.5854 20.3314C23.4954 20.4414 23.4154 20.5514 23.3254 20.6614C22.9554 21.1114 22.5254 21.5514 22.2054 21.8314V21.8414Z" fill="#209F2E"/>
<path d="M1.53544 17.9016C1.91544 18.6616 2.35544 19.3816 2.88544 20.1116C2.80544 20.1116 2.72544 20.1116 2.65544 20.1116C2.47544 19.9216 2.30544 19.6716 2.15544 19.4216C2.08544 19.3016 2.02544 19.1816 1.97544 19.0716C1.92544 18.9416 1.85544 18.7916 1.78544 18.6516C1.71544 18.5016 1.65544 18.3516 1.58544 18.2016C1.54544 18.1116 1.52544 18.0316 1.51544 17.9816C1.51544 17.9316 1.51544 17.9016 1.54544 17.9116L1.53544 17.9016Z" fill="#209F2E"/>
<path d="M3.9254 18.0516C3.8054 17.8616 3.6954 17.6916 3.6054 17.5616C3.5154 17.4316 3.4354 17.3416 3.3654 17.3416C3.3254 17.3416 3.2154 17.1316 3.3054 17.2416C3.3954 17.3516 3.1854 16.9716 3.2754 17.1416C3.2754 17.0616 3.2254 16.8616 3.1954 16.7016C3.1554 16.5416 3.1554 16.4316 3.2554 16.5216C3.3254 16.6716 3.4454 16.8216 3.4654 16.9616C3.5054 17.1316 3.5854 17.3216 3.6654 17.5016C3.7154 17.5916 3.7654 17.6816 3.8254 17.7816C3.8754 17.8716 3.9354 17.9716 3.9954 18.0616C4.0254 18.1516 3.9954 18.1416 3.9154 18.0616L3.9254 18.0516Z" fill="#209F2E"/>
<path d="M0.645437 16.0815C0.685437 16.2115 0.725437 16.3515 0.775437 16.4815C0.825437 16.6115 0.865437 16.7415 0.915437 16.8815C0.995437 17.0915 1.08544 17.2915 1.15544 17.3415C1.14544 17.1215 1.26544 17.3815 1.39544 17.6115L1.46544 17.7515L1.53544 17.9015C1.56544 18.0215 1.60544 18.1315 1.64544 18.2415C1.70544 18.3815 1.71544 18.4315 1.66544 18.4015C1.60544 18.3315 1.53544 18.2115 1.46544 18.0815C1.39544 17.9615 1.34544 17.8215 1.27544 17.7315C0.955437 17.2615 0.765437 16.6815 0.635437 16.0715L0.645437 16.0815Z" fill="#209F2E"/>
<path d="M6.89541 23.7915C6.16541 23.3915 5.47541 22.9215 4.82541 22.3915L4.79541 22.3115C4.79541 22.3115 4.86541 22.3415 4.89541 22.3515C5.00541 22.4215 5.11541 22.5115 5.20541 22.6015C5.36541 22.7315 5.53541 22.8515 5.70541 22.9715C5.77541 23.0115 5.84541 23.0615 5.91541 23.1015C5.98541 23.1515 6.06541 23.2015 6.14541 23.2415C6.22541 23.2915 6.29541 23.3415 6.36541 23.3815C6.43541 23.4215 6.51541 23.4615 6.58541 23.4815L6.89541 23.6515C6.99541 23.7115 7.10541 23.7615 7.21541 23.8115L7.38541 23.9215H7.29541C7.15541 23.8715 7.01541 23.8215 6.87541 23.7715L6.89541 23.7915Z" fill="#209F2E"/>
<path d="M5.19543 4.86145C5.35543 4.64145 5.54543 4.44145 5.74543 4.25145C5.84543 4.16145 5.95543 4.07146 6.06543 3.98146C6.17543 3.89146 6.29543 3.82146 6.41543 3.74146C6.01543 4.12146 5.65543 4.51145 5.19543 4.86145Z" fill="#209F2E"/>
<path d="M2.47543 10.1915C2.44543 10.1315 2.40543 10.1115 2.42543 9.90149C2.53543 9.67149 2.58543 9.42149 2.63543 9.15149C2.71543 8.84149 2.80543 8.61149 2.91543 8.53149C2.85543 8.65149 2.80543 8.78149 2.75543 8.90149C2.77543 8.97149 2.77543 9.06149 2.75543 9.16149C2.74543 9.26149 2.71543 9.36149 2.68543 9.48149C2.61543 9.70149 2.54543 9.96149 2.47543 10.1915Z" fill="#209F2E"/>
<path d="M0.155397 11.2615C0.105397 11.0415 0.145397 10.7615 0.215397 10.3915C0.295397 10.0315 0.335397 10.1415 0.385397 10.0115C0.515397 9.71153 0.455397 10.0415 0.415397 10.3015C0.385397 10.4615 0.365397 10.6315 0.335397 10.7915C0.295397 10.9215 0.255397 11.0115 0.225397 11.1315C0.205397 11.2015 0.185397 11.2515 0.165397 11.2615H0.155397Z" fill="#209F2E"/>
<path d="M3.06543 8.2416C3.17543 7.7516 3.47543 7.1616 3.76543 6.6516C3.80543 6.5716 3.91543 6.4816 3.98543 6.3916C3.62543 6.9816 3.35543 7.5916 3.06543 8.2516V8.2416Z" fill="#209F2E"/>
<path d="M8.14543 2.60142C8.52543 2.39142 8.89543 2.19142 9.32543 2.07142C9.47543 2.04142 9.52543 2.05142 9.52543 2.07142C9.52543 2.11142 9.40543 2.17142 9.28543 2.21142C9.18543 2.24142 9.09543 2.27142 8.99543 2.30142C8.94543 2.32142 8.89543 2.33142 8.85543 2.35142C8.80543 2.37142 8.76543 2.39142 8.71543 2.40142C8.61543 2.44142 8.52543 2.48142 8.42543 2.52142C8.32543 2.56142 8.23543 2.62142 8.13543 2.68142C7.98543 2.73142 7.98543 2.70142 8.16543 2.59142L8.14543 2.60142Z" fill="#209F2E"/>
<path d="M8.14544 2.60156L8.11544 2.69156C8.03544 2.75156 7.93544 2.80156 7.84544 2.87156C7.75544 2.93156 7.65544 2.99156 7.53544 3.06156C7.36544 3.15156 7.18544 3.28156 7.13544 3.25156C7.08544 3.23156 7.19544 3.13156 7.37544 3.00156C7.62544 2.85156 7.87544 2.69156 8.13544 2.60156H8.14544Z" fill="#209F2E"/>
<path d="M3.63544 21.1114C3.52544 20.9814 3.50544 20.8914 3.63544 21.0214C4.14544 21.5414 4.69544 22.0414 5.26544 22.5114C5.30544 22.5614 5.32544 22.5914 5.30544 22.5914C5.28544 22.5914 5.27544 22.5914 5.25544 22.5914L5.22544 22.5714C5.15544 22.5314 5.08544 22.4814 5.01544 22.4314C4.97544 22.4114 4.94544 22.3814 4.90544 22.3514C4.86544 22.3214 4.83544 22.2914 4.79544 22.2714C4.68544 22.1814 4.57544 22.0914 4.46544 22.0014C4.35544 21.9114 4.25544 21.8114 4.16544 21.7214C3.96544 21.5314 3.79544 21.3214 3.64544 21.1214L3.63544 21.1114Z" fill="#209F2E"/>
<path d="M7.99543 2.29156C8.20543 2.18156 8.40543 2.16156 8.62543 2.03156C9.07543 1.79156 9.14543 1.84156 9.24543 1.87156C8.86543 2.06156 8.45543 2.21156 8.06543 2.40156C7.85543 2.46156 7.79543 2.44156 8.00543 2.28156L7.99543 2.29156Z" fill="#209F2E"/>
<path d="M17.9254 22.7016L18.0354 22.6616L18.1454 22.6216C18.1454 22.6216 18.0854 22.6916 18.0454 22.7116C17.5654 22.9316 17.0754 23.1316 16.5654 23.2916C16.7854 23.1916 17.0054 23.1116 17.2154 22.9916C17.3354 22.9316 17.4554 22.8816 17.5754 22.8316C17.6954 22.7816 17.8054 22.7416 17.9254 22.7016Z" fill="#209F2E"/>
<path d="M0.14545 13.7114C0.16545 13.6614 0.19545 13.8414 0.22545 13.9814C0.24545 14.1014 0.26545 14.2114 0.26545 14.3114C0.26545 14.4114 0.26545 14.4914 0.26545 14.5514C0.26545 14.6014 0.19545 14.4914 0.16545 14.3914C0.10545 14.1414 0.0954502 13.7914 0.13545 13.7114H0.14545Z" fill="#209F2E"/>
<path d="M21.0654 22.5015C21.0654 22.5015 21.0354 22.5015 21.0254 22.5015C21.0054 22.4815 20.9554 22.4815 20.9954 22.4415C21.0754 22.3615 21.1554 22.3015 21.2154 22.2715C21.2754 22.2315 21.3154 22.2215 21.3454 22.2215C21.4254 22.1615 21.5254 22.0915 21.6154 22.0215C21.7054 21.9515 21.7954 21.8815 21.8654 21.8415C21.9054 21.8215 21.9154 21.8415 21.9154 21.8615C21.8454 21.9815 21.7354 22.0915 21.6054 22.2015C21.4754 22.3115 21.3354 22.4215 21.2054 22.5215C21.0554 22.6115 21.0154 22.6115 21.0854 22.5215L21.0654 22.5015Z" fill="#209F2E"/>
<path d="M16.9454 1.19141C17.4954 1.34141 17.9154 1.53141 18.3254 1.76141C18.2054 1.78141 17.9654 1.63141 17.7854 1.56141C17.5554 1.46141 17.2954 1.37141 16.9454 1.20141V1.19141Z" fill="#209F2E"/>
<path d="M14.8954 0.711416C14.8954 0.711416 15.0754 0.711416 15.1954 0.711416C15.3154 0.721416 15.4254 0.731416 15.4354 0.701416C15.8354 0.771416 16.1254 0.871416 16.2354 0.991416C15.7754 0.891416 15.3354 0.811416 14.8954 0.711416Z" fill="#209F2E"/>
<path d="M8.0554 2.44158C8.0554 2.44158 8.0354 2.41158 8.0554 2.38158C8.4354 2.18158 8.8354 2.02158 9.2454 1.87158C9.3254 1.87158 9.2154 1.94158 9.0954 1.99158L8.8354 2.09158C8.7454 2.12158 8.6654 2.16158 8.5754 2.20158L8.3154 2.31158C8.2254 2.35158 8.1454 2.39158 8.0654 2.43158L8.0554 2.44158Z" fill="#209F2E"/>
<path d="M4.92541 22.4014C4.92541 22.4014 4.86541 22.4014 4.83541 22.3914C4.38541 22.0114 3.94541 21.6114 3.54541 21.1714L3.68541 21.2314C3.79541 21.3314 3.89541 21.4314 4.00541 21.5214C4.11541 21.6114 4.21541 21.7114 4.32541 21.8114C4.42541 21.9114 4.53541 22.0014 4.63541 22.1014C4.73541 22.2014 4.83541 22.3014 4.93541 22.4014H4.92541Z" fill="#209F2E"/>
<path d="M4.92544 22.4016C4.81544 22.3116 4.70544 22.2116 4.60544 22.1216C4.49544 22.0316 4.38544 21.9316 4.28544 21.8316L3.97544 21.5316L3.68544 21.2216C3.64544 21.1616 3.63544 21.1216 3.63544 21.1016C4.04544 21.5516 4.49544 21.9616 4.95544 22.3516H4.90544L4.92544 22.3916V22.4016Z" fill="#209F2E"/>
<path d="M1.43545 6.80144C1.48545 6.69144 1.54545 6.58144 1.60545 6.47144C1.66545 6.36144 1.72545 6.23144 1.79545 6.11144C1.86545 5.98144 1.94545 5.85144 2.03545 5.70144C2.12545 5.55144 2.23545 5.39144 2.34545 5.22144C2.24545 5.40144 2.15545 5.57144 2.06545 5.71144C1.98545 5.86144 1.91545 6.00144 1.84545 6.13144C1.77545 6.26144 1.71545 6.38144 1.65545 6.50144C1.59545 6.62144 1.53545 6.73144 1.47545 6.84144C1.41545 6.94144 1.38545 6.97144 1.39545 6.92144C1.39545 6.88144 1.41545 6.84144 1.42545 6.80144H1.43545Z" fill="#209F2E"/>
<path d="M10.0654 1.61145C10.0654 1.61145 10.1254 1.55145 10.1954 1.53145C10.2654 1.50145 10.3354 1.49145 10.3854 1.48145C10.4354 1.48145 10.4654 1.48145 10.4754 1.49145C10.4754 1.50145 10.4254 1.54145 10.3654 1.56145C10.2354 1.60145 10.1054 1.63145 10.0654 1.61145Z" fill="#209F2E"/>
<path d="M2.10544 19.3114C2.19544 19.4414 2.27544 19.5814 2.37544 19.7114L2.65544 20.1014C2.73544 20.2114 2.81544 20.3214 2.89544 20.4314H2.87544L2.66544 20.1714L2.46544 19.8914C2.39544 19.8014 2.32544 19.7114 2.26544 19.6114L2.07544 19.3214C2.01544 19.2014 1.99544 19.1614 2.02544 19.1914C2.05544 19.2214 2.08544 19.2614 2.10544 19.3014V19.3114Z" fill="#209F2E"/>
<path d="M20.9254 22.6715C21.2654 22.4115 21.5854 22.1315 21.8954 21.8415C21.9454 21.8215 21.9854 21.8115 22.0354 21.7915C21.8454 21.9815 21.6454 22.1615 21.4454 22.3315C21.2454 22.4915 21.0354 22.6315 20.8354 22.7515L20.9154 22.6815L20.9254 22.6715Z" fill="#209F2E"/>
<path d="M0.275396 11.2515C0.265396 11.4715 0.245396 11.6915 0.245396 11.9215C0.245396 11.9715 0.235396 12.0615 0.225396 12.0615C0.215396 12.0615 0.185396 12.0415 0.185396 11.9815C0.155396 11.7515 0.155396 11.5015 0.155396 11.2515C0.165396 11.1915 0.175396 11.1315 0.195396 11.0715C0.215396 11.0315 0.245396 11.0015 0.255396 11.0115C0.265396 11.0215 0.275396 11.0915 0.275396 11.2415V11.2515Z" fill="#209F2E"/>
<path d="M1.38539 17.6114C1.30539 17.5214 1.21539 17.4314 1.14539 17.3414C1.09539 17.2214 1.05539 17.1014 1.02539 16.9914C0.995393 16.8814 0.965393 16.7914 0.965393 16.7014C1.02539 16.8414 1.10539 16.9714 1.17539 17.1214C1.20539 17.1914 1.24539 17.2714 1.27539 17.3514C1.31539 17.4314 1.34539 17.5114 1.38539 17.6014V17.6114Z" fill="#209F2E"/>
<path d="M21.8454 21.8215C21.7554 21.9215 21.6554 21.9915 21.5654 22.0515C21.4754 22.1115 21.3954 22.1615 21.3254 22.2015C21.5054 22.0315 21.6954 21.8615 21.8654 21.6915C21.9554 21.6115 22.0454 21.5315 22.1354 21.4615C22.2254 21.3815 22.3054 21.3115 22.3954 21.2515C22.3054 21.3515 22.2154 21.4515 22.1254 21.5415L21.8454 21.8215Z" fill="#209F2E"/>
<path d="M6.99543 23.5815C6.85543 23.5515 6.67543 23.4615 6.49543 23.3615C6.31543 23.2515 6.12543 23.1215 5.94543 23.0115L6.09543 23.0415C6.25543 23.1115 6.40543 23.2015 6.55543 23.2915C6.70543 23.3815 6.85543 23.4715 6.99543 23.5815Z" fill="#209F2E"/>
<path d="M12.9954 1.4414C13.0854 1.4314 13.1654 1.4414 13.1954 1.4614C13.2354 1.4914 13.2154 1.5114 13.0754 1.5214C13.0154 1.5214 12.8954 1.5214 12.8554 1.5014C12.7854 1.4814 12.8354 1.4514 12.9854 1.4314L12.9954 1.4414Z" fill="#209F2E"/>
<path d="M21.1854 19.8115C21.0454 19.9215 20.9254 20.0115 20.9854 19.8815C21.0354 19.8315 21.0854 19.7815 21.1354 19.7315C21.1854 19.6815 21.2254 19.6315 21.2754 19.5915C21.3654 19.5015 21.4554 19.4115 21.5454 19.3315C21.6254 19.4115 21.4054 19.6215 21.1854 19.8215V19.8115Z" fill="#209F2E"/>
<path d="M21.1854 19.8115C21.3354 19.6415 21.4954 19.4615 21.5454 19.3215C21.7054 19.1415 21.7954 19.0815 21.8754 19.0615C21.6654 19.3715 21.4254 19.6515 21.1954 19.8015L21.1854 19.8115Z" fill="#209F2E"/>
<path d="M7.83545 1.9014C7.85545 1.8514 7.97545 1.7514 8.15545 1.6914C8.32545 1.6314 8.30545 1.6914 8.29545 1.7314C8.18545 1.8014 8.09545 1.8314 8.02545 1.8514C7.95545 1.8714 7.89545 1.8814 7.83545 1.9014Z" fill="#209F2E"/>
<path d="M24.1454 16.2215C24.2554 15.8415 24.3554 15.5115 24.4854 15.2615C24.4454 15.4515 24.3954 15.6215 24.3354 15.7815C24.2854 15.9415 24.2054 16.0815 24.1454 16.2215Z" fill="#209F2E"/>
<path d="M0.275425 11.2516L0.185425 11.0816C0.245425 10.6516 0.265425 10.6216 0.325425 10.7916C0.305425 10.9416 0.285425 11.1016 0.275425 11.2516Z" fill="#209F2E"/>
<path d="M6.59539 23.5015C6.52539 23.4815 6.45539 23.4615 6.38539 23.4215C6.31539 23.3815 6.24539 23.3415 6.16539 23.2915C6.01539 23.1915 5.85539 23.0915 5.71539 22.9815C5.71539 22.9515 5.74539 22.9515 5.81539 22.9815C5.93539 23.0715 6.07539 23.1515 6.20539 23.2415L6.39539 23.3715C6.46539 23.4115 6.52539 23.4515 6.59539 23.4915V23.5015Z" fill="#209F2E"/>
<path d="M1.43545 6.80151C1.43545 6.80151 1.47545 6.80151 1.48545 6.83151C1.41545 6.98151 1.35545 7.14151 1.28545 7.29151C1.21545 7.44151 1.15545 7.58151 1.08545 7.70151C1.11545 7.56151 1.16545 7.41151 1.22545 7.26151C1.28545 7.11151 1.36545 6.96151 1.44545 6.81151L1.43545 6.80151Z" fill="#209F2E"/>
<path d="M4.27544 5.86162C4.40544 5.71162 4.54544 5.56162 4.68544 5.41162C4.60544 5.54162 4.52544 5.67162 4.43544 5.79162C4.38544 5.85162 4.34544 5.92162 4.29544 5.99162C4.24544 6.06162 4.19544 6.12162 4.13544 6.19162C4.18544 6.08162 4.22544 5.97162 4.27544 5.87162V5.86162Z" fill="#209F2E"/>
<path d="M2.86541 20.4514H2.88541C2.96541 20.5214 3.03541 20.6014 3.11541 20.6914C3.19541 20.7814 3.26541 20.8714 3.33541 20.9714C3.31541 20.9714 3.29541 20.9714 3.29541 20.9714C3.21541 20.8914 3.13541 20.8014 3.05541 20.7214C2.98541 20.6314 2.91541 20.5414 2.85541 20.4514H2.86541Z" fill="#209F2E"/>
<path d="M0.0854199 11.9314C0.0854199 11.9314 0.12542 12.0314 0.11542 12.0514C0.10542 12.1914 0.0854199 12.3114 0.0754199 12.4514C0.0654199 12.3614 0.0554199 12.2714 0.0554199 12.1814C0.0554199 12.0514 0.0554199 11.9714 0.0854199 11.9414V11.9314Z" fill="#209F2E"/>
<path d="M0.54541 9.06142C0.57541 8.74142 0.57541 8.71142 0.72541 8.45142C0.69541 8.67142 0.64541 8.87142 0.54541 9.06142Z" fill="#209F2E"/>
<path d="M0.275391 14.0415V13.7915L0.355391 14.2015L0.335391 14.3015L0.275391 14.0415Z" fill="#209F2E"/>
<path d="M0.605408 9.09143C0.665408 8.88143 0.725408 8.67143 0.785408 8.46143C0.785408 8.73143 0.745408 8.86143 0.605408 9.09143Z" fill="#209F2E"/>
<path d="M8.44542 0.611572C8.34542 0.661572 8.25542 0.701572 8.16542 0.741572C8.13542 0.751572 8.09542 0.761572 8.05542 0.771572C8.14542 0.721572 8.22542 0.681572 8.32542 0.641572C8.35542 0.631572 8.40542 0.621572 8.45542 0.611572H8.44542Z" fill="#209F2E"/>
<path d="M17.9254 22.7014L17.5754 22.8514C17.4554 22.9014 17.3354 22.9414 17.2154 22.9914C17.1954 22.9914 17.1754 22.9714 17.1454 22.9714C17.2954 22.9014 17.4354 22.8514 17.5654 22.8014C17.6954 22.7514 17.8154 22.7214 17.9254 22.6914V22.7014Z" fill="#209F2E"/>
<path d="M11.7454 1.32144C11.3654 1.32144 11.3654 1.32144 11.7154 1.22144C11.9354 1.22144 11.9354 1.26144 11.7454 1.32144Z" fill="#209F2E"/>
<path d="M12.0754 1.23154C12.0754 1.23154 12.0454 1.19154 12.0754 1.17154C12.5654 1.13154 12.5854 1.13154 12.4154 1.21154C12.2954 1.24154 12.1854 1.24154 12.0754 1.23154Z" fill="#209F2E"/>
<path d="M11.0554 1.7116C11.0554 1.7116 10.9654 1.6916 10.9454 1.6816C10.9454 1.6816 11.0054 1.6616 11.0454 1.6416C11.0854 1.6416 11.1354 1.6616 11.1554 1.6716C11.1554 1.6716 11.0954 1.6916 11.0554 1.7116Z" fill="#209F2E"/>
<path d="M12.0754 1.23143C12.1854 1.23143 12.2954 1.22143 12.4154 1.21143C12.3654 1.25143 12.2654 1.27143 12.0854 1.28143C12.0654 1.26143 12.0554 1.25143 12.0854 1.23143H12.0754Z" fill="#209F2E"/>
<path d="M7.43542 2.72144C7.43542 2.72144 7.48542 2.73144 7.47542 2.76144C7.32542 2.85144 7.19542 2.92144 7.17542 2.89144C7.20542 2.86144 7.24541 2.82144 7.29541 2.80144C7.33541 2.77144 7.38542 2.75144 7.44542 2.73144L7.43542 2.72144Z" fill="#209F2E"/>
<path d="M7.43542 2.72161L7.30542 2.80161L7.17542 2.89161C7.17542 2.89161 7.26542 2.76161 7.43542 2.65161V2.72161Z" fill="#209F2E"/>
<path d="M24.5554 14.6516C24.5354 14.8216 24.4954 14.9116 24.4554 14.9316C24.4654 14.8416 24.4854 14.7816 24.5054 14.7416C24.5254 14.7016 24.5354 14.6716 24.5554 14.6516Z" fill="#209F2E"/>
<path d="M24.6654 14.3815C24.6654 14.3815 24.6354 14.4015 24.6254 14.3515C24.6454 14.2815 24.6654 14.1615 24.6754 14.1515C24.7154 14.1415 24.6854 14.2515 24.6654 14.3715V14.3815Z" fill="#209F2E"/>
<path d="M5.24542 22.5715V22.5015C5.36542 22.5915 5.45542 22.6815 5.41542 22.6815C5.40542 22.6815 5.30542 22.6115 5.24542 22.5715Z" fill="#209F2E"/>
<path d="M0.545444 15.4415C0.515444 15.3215 0.485444 15.2015 0.455444 15.0715C0.545444 15.1615 0.535444 15.3015 0.545444 15.4415Z" fill="#209F2E"/>
<path d="M4.9054 22.3716C4.9054 22.3716 4.9454 22.3716 4.9554 22.3716L5.0854 22.4616L5.2154 22.5616C5.2154 22.5616 5.2354 22.6116 5.2154 22.6116L4.9054 22.3716Z" fill="#209F2E"/>
<path d="M1.88544 18.9516C1.88544 18.9516 1.85544 18.9716 1.84544 18.9916C1.77544 18.8716 1.70544 18.7516 1.63544 18.6316C1.68544 18.6516 1.77544 18.7716 1.87544 18.9516H1.88544Z" fill="#209F2E"/>
<path d="M2.19542 10.4716C2.27542 10.4716 2.30542 10.4716 2.31542 10.5416C2.31542 10.5716 2.31542 10.6216 2.31542 10.7016C2.31542 10.7716 2.29542 10.8716 2.28542 11.0116C2.24542 10.7016 2.12542 11.0116 2.04542 11.0216C2.03542 10.9416 2.02542 10.8316 2.04542 10.6916L2.14542 10.3816C2.14542 10.3816 2.20542 10.3816 2.20542 10.4716H2.19542Z" fill="#209F2E"/>
<path d="M18.2254 22.2215C18.3154 22.2015 18.3254 22.2215 18.2254 22.2715C17.6754 22.5715 17.0854 22.8615 16.5054 22.9515L16.6354 22.8715C16.7754 22.8215 16.9154 22.7715 17.0454 22.7215C17.1454 22.6815 17.2454 22.6415 17.3454 22.6015C17.4454 22.5615 17.5454 22.5115 17.6454 22.4715C17.7454 22.4215 17.8454 22.3815 17.9354 22.3415C18.0354 22.3015 18.1254 22.2615 18.2254 22.2215Z" fill="#209F2E"/>
<path d="M6.14544 2.5615C6.48544 2.2415 6.92544 1.9615 7.38544 1.7515C7.61544 1.6615 7.76544 1.6415 7.34544 1.8715C7.18544 1.9315 7.03544 2.0315 6.88544 2.1215C6.73544 2.2215 6.59544 2.3215 6.44544 2.4015C6.32544 2.4715 6.22544 2.5215 6.13544 2.5515L6.14544 2.5615Z" fill="#209F2E"/>
<path d="M18.2254 22.2214L17.8954 22.3914L17.5554 22.5414C17.4454 22.5914 17.3254 22.6414 17.2154 22.6814C17.0954 22.7214 16.9854 22.7714 16.8654 22.8114C16.7554 22.8314 16.7154 22.8414 16.7354 22.8114C16.7554 22.7914 16.7854 22.7714 16.8154 22.7614C16.9354 22.7214 17.0554 22.6714 17.1854 22.6214C17.2454 22.6014 17.3054 22.5714 17.3654 22.5514C17.4254 22.5214 17.4854 22.5014 17.5454 22.4714C17.6654 22.4214 17.7854 22.3714 17.8954 22.3314C18.0054 22.2814 18.1154 22.2414 18.2254 22.2214Z" fill="#209F2E"/>
<path d="M2.42542 9.5914C2.42542 9.5914 2.35542 9.5314 2.32542 9.5914C2.29542 9.6614 2.25542 9.8114 2.18542 10.1314C2.18542 10.0414 2.18542 9.9614 2.18542 9.8714C2.28542 9.5314 2.36542 9.35141 2.39542 9.32141C2.43542 9.28141 2.43542 9.3814 2.43542 9.5914H2.42542Z" fill="#209F2E"/>
<path d="M2.77545 6.21139C2.84545 6.18139 2.77545 6.32139 2.70545 6.44139C2.57545 6.68139 2.46545 6.89139 2.39545 6.88139C2.36545 6.88139 2.36545 6.81139 2.43545 6.66139C2.57545 6.37139 2.68545 6.27139 2.76545 6.21139H2.77545Z" fill="#209F2E"/>
<path d="M7.10543 2.02148C7.03543 2.08148 6.96543 2.13148 6.88543 2.18148C6.81543 2.24148 6.73543 2.29148 6.65543 2.35148C6.57543 2.41148 6.49543 2.46148 6.40543 2.51148C6.32543 2.57148 6.23543 2.62148 6.14543 2.67148C5.88543 2.81148 5.85543 2.78148 6.14543 2.55148C6.19543 2.52148 6.25543 2.50148 6.30543 2.47148C6.42543 2.39148 6.57543 2.31148 6.70543 2.22148C6.77543 2.18148 6.83543 2.13148 6.90543 2.10148C6.97543 2.07148 7.03543 2.04148 7.09543 2.02148H7.10543Z" fill="#209F2E"/>
<path d="M20.4654 20.8014C20.5054 20.7514 20.5454 20.7014 20.5954 20.6514C20.7354 20.5214 20.8754 20.3914 20.9054 20.4314C20.9054 20.4314 20.8754 20.4914 20.8554 20.5114C20.7854 20.5814 20.7154 20.6414 20.6554 20.6914C20.5854 20.7414 20.5254 20.7814 20.4754 20.8014H20.4654Z" fill="#209F2E"/>
<path d="M1.94543 11.7914C1.95543 11.7114 1.97543 11.6214 1.98543 11.5614C2.00543 11.4814 2.02543 11.5214 2.02543 11.6414C2.02543 11.7114 1.99543 11.8314 1.98543 11.8614C1.97543 11.8914 1.95543 11.8214 1.94543 11.7914Z" fill="#209F2E"/>
<path d="M8.40544 1.35151C8.31544 1.40151 8.19544 1.46151 8.06544 1.52151C8.03544 1.53151 7.93544 1.54151 7.95544 1.52151C8.00544 1.47151 8.14544 1.40151 8.29544 1.34151C8.43544 1.29151 8.47544 1.28151 8.39544 1.35151H8.40544Z" fill="#209F2E"/>
<path d="M19.1654 21.7416L18.9454 21.8516C19.0054 21.8016 19.0654 21.7416 19.1254 21.7016C19.1954 21.6616 19.2654 21.6316 19.3354 21.5916C19.2754 21.6416 19.2154 21.6916 19.1554 21.7416H19.1654Z" fill="#209F2E"/>
<path d="M18.3754 24.0614C18.3754 24.0614 18.3354 24.0414 18.2854 24.0414C18.4254 23.9714 18.5754 23.9114 18.6954 23.8514C18.8254 23.7914 18.9454 23.7414 19.0554 23.7214V23.7414C18.9454 23.8114 18.8254 23.8714 18.7154 23.9314C18.6054 23.9914 18.4854 24.0214 18.3754 24.0614Z" fill="#209F2E"/>
<path d="M7.96539 22.3214C7.96539 22.3214 7.96539 22.3014 7.98539 22.3114C8.01539 22.3114 8.06539 22.3414 8.08539 22.3614C8.18539 22.4214 8.17539 22.4314 8.05539 22.3814C8.02539 22.3714 7.99539 22.3414 7.96539 22.3214Z" fill="#209F2E"/>
<path d="M2.19544 10.4716L2.13544 10.3816C2.14544 10.3016 2.16544 10.2316 2.18544 10.1616L2.20544 10.4716H2.19544Z" fill="#209F2E"/>
<path d="M2.19541 14.5114C2.19541 14.5114 2.19541 14.5714 2.19541 14.6014C2.18541 14.5714 2.17541 14.5414 2.16541 14.5114C2.16541 14.4814 2.16541 14.4514 2.16541 14.4314C2.17541 14.4614 2.18541 14.4914 2.19541 14.5114Z" fill="#209F2E"/>
<path d="M2.03544 10.6914V11.0214C2.03544 11.0214 2.01544 10.8714 2.03544 10.6914Z" fill="#209F2E"/>
<path d="M16.5054 22.9516C16.3654 22.9716 16.3254 22.9516 16.5454 22.8716C16.6154 22.8616 16.6454 22.8716 16.6254 22.8816C16.6054 22.9016 16.5854 22.9116 16.5654 22.9216L16.5054 22.9516Z" fill="#209F2E"/>
<path d="M16.5654 22.9215C16.5654 22.9215 16.5454 22.8915 16.5554 22.8715L16.6854 22.8215L16.8254 22.7715C16.8254 22.7715 16.8654 22.8015 16.8654 22.8215C16.7654 22.8515 16.6654 22.8915 16.5654 22.9215Z" fill="#209F2E"/>
<path d="M9.22541 24.6016C9.33541 24.6416 9.45541 24.6716 9.57541 24.7116C9.69541 24.7416 9.81541 24.7816 9.94541 24.8216C10.2054 24.8816 10.5054 24.9616 10.8654 25.0216C10.4954 24.9916 10.1954 24.9216 9.92541 24.8716C9.79541 24.8416 9.66541 24.8016 9.54541 24.7716C9.42541 24.7316 9.30541 24.7016 9.18541 24.6616C9.10541 24.6216 9.08541 24.6016 9.12541 24.6016C9.16541 24.6016 9.19541 24.6016 9.22541 24.6216V24.6016Z" fill="#209F2E"/>
<path d="M18.3754 24.0615C18.4854 24.0115 18.6054 23.9615 18.7154 23.9115L19.0554 23.7515C19.0554 23.7515 19.0554 23.7815 19.0954 23.7815C18.9654 23.8515 18.8354 23.9215 18.7154 23.9815C18.5854 24.0415 18.4554 24.0915 18.3354 24.1515C18.0854 24.2615 17.8254 24.3315 17.5754 24.4115C17.8454 24.3015 18.1154 24.2015 18.3854 24.0715L18.3754 24.0615Z" fill="#209F2E"/>
<path d="M8.3154 24.3315L8.6354 24.4615C8.7454 24.5015 8.8554 24.5415 8.9554 24.5715C8.9254 24.5715 8.8854 24.5815 8.8454 24.5915C8.7854 24.5715 8.7254 24.5515 8.6654 24.5315C8.6054 24.5115 8.5454 24.4815 8.4854 24.4615C8.3754 24.4115 8.3054 24.3715 8.3154 24.3315Z" fill="#209F2E"/>
<path d="M9.24541 24.6014L8.91541 24.4814C8.91541 24.4814 8.91541 24.4614 8.93541 24.4514C9.00541 24.4514 9.11541 24.4714 9.28541 24.5314C9.32541 24.5614 9.31541 24.5614 9.24541 24.5514C9.27541 24.5814 9.27541 24.5914 9.25541 24.6014H9.24541Z" fill="#209F2E"/>
<path d="M2.90543 7.86151L2.81543 7.79151C2.85543 7.68151 2.89543 7.58151 2.93543 7.48151C2.98543 7.38151 3.02543 7.29151 3.07543 7.21151C3.12543 7.13151 3.17543 7.05151 3.22543 6.98151C3.27543 6.91151 3.33543 6.85151 3.38543 6.80151C3.33543 6.93151 3.24543 7.09151 3.18543 7.25151C3.12543 7.41151 3.06543 7.55151 3.07543 7.63151L3.01543 7.75151L2.96543 7.87151C2.90543 7.96151 2.88543 7.99151 2.87543 7.96151C2.87543 7.93151 2.87543 7.89151 2.89543 7.86151H2.90543Z" fill="#209F2E"/>
<path d="M2.90543 7.86157H2.97543C2.87543 8.08157 2.79543 8.30157 2.70543 8.52157C2.65543 8.65157 2.60543 8.80157 2.57543 8.77157C2.56543 8.76157 2.57543 8.68157 2.57543 8.61157C2.57543 8.54157 2.61543 8.45157 2.63543 8.37157C2.67543 8.37157 2.72543 8.30157 2.76543 8.20157C2.78543 8.15157 2.80543 8.10157 2.82543 8.04157C2.84543 7.98157 2.87543 7.92157 2.89543 7.86157H2.90543Z" fill="#209F2E"/>
<path d="M2.42544 9.87158C2.42544 9.87158 2.39544 9.77158 2.42544 9.62158V9.87158Z" fill="#209F2E"/>
<path d="M6.9854 23.5614C6.9854 23.5614 6.9754 23.5214 6.9054 23.4714C7.0254 23.5414 7.1454 23.6014 7.2654 23.6614C7.3854 23.7214 7.5054 23.7814 7.6354 23.8414C7.8854 23.9514 8.1254 24.0714 8.3754 24.1814H8.3154L8.1454 24.1214L7.9754 24.0514L7.6354 23.9014C7.5254 23.8514 7.4154 23.7914 7.3054 23.7414C7.1954 23.6814 7.0854 23.6314 6.9754 23.5714L6.9854 23.5614Z" fill="#209F2E"/>
<path d="M8.32544 24.1914C8.32544 24.1914 8.34544 24.1814 8.38544 24.1814C8.52544 24.2314 8.66544 24.2914 8.81544 24.3414L9.24544 24.4814C9.24544 24.4814 9.25544 24.5114 9.27544 24.5314L8.92544 24.4514C8.72544 24.3814 8.52544 24.2814 8.32544 24.1914Z" fill="#209F2E"/>
<path d="M7.2254 23.8315C7.3554 23.8615 7.4754 23.8915 7.5654 24.0015C7.4854 23.9815 7.3954 23.9415 7.3054 23.8815L7.2254 23.8315Z" fill="#209F2E"/>
<path d="M7.30541 23.8816C7.39541 23.9216 7.47541 23.9616 7.56541 24.0016C7.56541 24.0316 7.46541 24.0016 7.31541 23.9316C7.28541 23.9016 7.28541 23.8816 7.31541 23.8816H7.30541Z" fill="#209F2E"/>
<path d="M0.465393 15.3916L0.515393 15.5516C0.515393 15.6016 0.535393 15.6616 0.545393 15.7116C0.485393 15.6216 0.465393 15.5116 0.465393 15.3916Z" fill="#209F2E"/>
<path d="M2.13542 19.2314L2.03542 19.0814L1.94542 18.9314L1.74542 18.5614C1.68542 18.4314 1.62542 18.3114 1.55542 18.1814C1.58542 18.2014 1.61542 18.2314 1.63542 18.2414C1.67542 18.3314 1.72542 18.4214 1.77542 18.5114C1.82542 18.6014 1.88542 18.6914 1.93542 18.7814C1.98542 18.8714 2.03542 18.9514 2.06542 19.0314C2.09542 19.1114 2.12542 19.1814 2.13542 19.2414V19.2314Z" fill="#209F2E"/>
<path d="M2.42544 19.6515L2.38544 19.5615C2.38544 19.5615 2.44544 19.6215 2.45544 19.6315C2.52544 19.7515 2.51544 19.7615 2.42544 19.6515Z" fill="#209F2E"/>
<path d="M0.855432 16.3516L0.775432 16.2516C0.775432 16.2516 0.765432 16.1516 0.755432 16.1116C0.785432 16.2016 0.815432 16.2816 0.855432 16.3616V16.3516Z" fill="#209F2E"/>
<path d="M7.4654 7.48158C7.4154 7.40158 7.3654 7.31158 7.3954 7.25158L7.2554 6.98158C7.2554 6.98158 7.2854 6.95158 7.3054 6.96158C7.3254 6.99158 7.3454 7.02158 7.3654 7.05158C7.3954 7.08158 7.4154 7.11158 7.4154 7.15158C7.4654 7.30158 7.5954 7.45158 7.5854 7.59158C7.7454 7.74158 7.8054 7.94158 7.8954 8.12158C7.9354 8.20158 7.9654 8.27158 8.0054 8.35158C8.0454 8.41158 8.0554 8.50158 8.1354 8.53158C8.1554 8.46158 8.1754 8.41158 8.1954 8.35158C8.1854 8.28158 8.1254 8.18158 8.2054 8.19158C8.2254 8.19158 8.2854 8.30158 8.3054 8.36158C8.3354 8.42158 8.3354 8.48158 8.3454 8.54158C8.5954 8.98158 8.8054 9.44158 9.0854 9.87158C9.0854 9.86158 9.1054 9.85158 9.1154 9.84158C9.0054 9.48158 8.9154 9.13158 8.7854 8.76158C8.6854 8.48158 8.5754 8.19158 8.5254 7.92158C8.4754 7.86158 8.4354 7.79158 8.4354 7.74158C8.4454 7.63158 8.2654 7.45158 8.3554 7.38158C8.4654 7.49158 8.4654 7.62158 8.5354 7.74158C8.6754 7.97158 8.7954 8.21158 8.9254 8.44158C8.9254 8.44158 8.9254 8.44158 8.9154 8.45158C8.9654 8.52158 9.0254 8.58158 9.0554 8.65158C9.1954 9.06158 9.1354 8.60158 9.2054 8.71158C9.3154 8.95158 9.4254 9.18158 9.5354 9.42158C9.5854 9.53158 9.6454 9.60158 9.7254 9.66158C9.7654 9.66158 9.8354 9.66158 9.8454 9.68158C9.9654 9.89158 10.1554 10.0116 10.2554 10.2416C10.2954 10.3516 10.3654 10.4516 10.4254 10.5616C10.7354 10.9516 10.9754 11.4116 11.3254 11.7516C11.3254 11.7516 11.3454 11.8116 11.3254 11.8216C11.2954 11.8516 11.2754 11.8816 11.3454 11.9516C11.5354 12.1616 11.6754 12.4116 11.8054 12.6616C11.8254 12.7116 11.8554 12.7616 11.8854 12.7916C11.9554 12.8616 12.0254 12.9216 12.0954 13.0016C12.1954 13.1116 12.1254 13.1916 12.1954 13.2516C12.4054 13.4416 12.5154 13.7116 12.6854 13.9316C12.7454 14.0116 12.8154 14.1016 12.8654 14.1816C12.8954 14.2216 12.9154 14.2716 12.9354 14.3216C12.9354 14.3216 12.9154 14.3416 12.9054 14.3516C12.8854 14.3716 12.9054 14.3616 12.9054 14.3616C12.9154 14.3616 12.9354 14.3616 12.9554 14.3216C12.9554 14.3016 12.9654 14.2816 12.9254 14.4316C12.8954 14.5116 12.9154 14.5316 12.9354 14.4416C12.9554 14.3616 12.9554 14.3316 12.9554 14.3716C12.9554 14.4416 12.9554 14.4916 12.9554 14.4016C12.9554 14.3516 12.9554 14.3616 12.9554 14.4716C12.9554 14.6216 12.9754 14.6416 12.9754 14.5416C12.9754 14.5216 12.9754 14.5016 12.9754 14.4816C12.9754 14.4516 12.9754 14.4616 12.9754 14.4816C12.9754 14.5016 12.9754 14.5116 12.9754 14.4816C13.0054 14.6316 13.0054 14.5716 12.9954 14.4816C12.9854 14.4216 12.9954 14.4216 12.9954 14.4216L13.0154 14.4416C13.0154 14.4416 13.0154 14.4416 13.0154 14.3916C13.0254 14.3916 13.0354 14.3916 13.0354 14.3916L13.0554 14.3516C13.0554 14.3516 13.0854 14.2916 13.0954 14.2716V14.2516H13.1154V14.2316L13.1554 14.1916C13.1854 14.1316 13.2254 14.0716 13.2554 14.0216C13.3654 13.8516 13.4454 13.6516 13.5354 13.4716L14.0254 12.5816C14.0954 12.4616 14.1954 12.4316 14.2454 12.2916C14.3154 12.0916 14.4454 11.9416 14.5554 11.7616C14.6654 11.5716 14.7954 11.4016 14.9254 11.2316C15.0554 11.0616 15.1854 10.8916 15.2954 10.7116C15.8654 9.82158 16.5454 9.02158 17.1754 8.16158C17.4154 7.93158 17.5954 7.63158 17.8054 7.38158C18.0354 7.12158 18.2354 6.85158 18.4554 6.58158C19.1054 5.80158 19.7954 5.05158 20.5854 4.39158C20.7654 4.25158 20.9454 4.10158 21.1154 3.95158C21.2954 3.80158 21.4654 3.65158 21.6154 3.47158C21.7254 3.36158 21.8854 3.23158 22.0254 3.16158C22.2454 3.04158 22.4454 2.89158 22.6554 2.76158C22.7554 2.70158 22.8454 2.63158 22.9454 2.56158C23.0454 2.49158 23.1054 2.48158 23.0654 2.58158C23.0454 2.63158 23.0654 2.66158 23.1154 2.67158C23.2854 2.70158 23.4354 2.65158 23.6354 2.48158C23.7554 2.38158 23.8354 2.31158 23.9754 2.31158C24.0654 2.31158 24.2054 2.23158 24.2354 2.12158C24.2554 2.04158 24.3554 2.01158 24.4354 2.00158C24.5354 1.99158 24.5954 2.04158 24.7254 2.00158C24.8254 1.97158 24.9154 1.97158 25.0054 1.97158C24.9654 2.08158 25.0654 2.04158 25.1754 2.00158C25.2454 1.97158 25.3154 1.95158 25.3754 1.93158C25.4754 1.90158 25.5354 1.93158 25.5154 2.01158C25.5154 2.03158 25.5054 2.05158 25.4954 2.08158C25.4654 2.15158 25.4954 2.17158 25.6054 2.14158C25.6354 2.13158 25.6754 2.12158 25.7054 2.11158C25.8454 2.07158 25.9754 2.06158 26.0754 2.09158C26.1854 2.11158 26.0954 2.21158 26.0754 2.28158C26.0654 2.36158 26.1154 2.40158 26.2454 2.39158C26.2954 2.39158 26.3454 2.36158 26.3954 2.36158C26.5354 2.34158 26.5954 2.40158 26.5854 2.51158C26.5854 2.58158 26.4554 2.68158 26.2954 2.73158C26.1954 2.76158 26.1054 2.79158 26.0154 2.84158C25.8554 2.94158 25.6854 3.04158 25.5154 3.14158C25.4154 3.20158 25.3054 3.26158 25.2654 3.35158C25.3854 3.38158 25.5254 3.31158 25.6754 3.26158C25.8454 3.20158 26.0154 3.13158 26.1854 3.07158L26.6954 2.90158C26.6954 2.90158 26.7954 2.86158 26.8054 2.90158C26.8054 2.93158 26.8054 2.96158 26.7554 2.99158C26.6054 3.10158 26.4454 3.20158 26.3154 3.31158C26.1754 3.43158 25.9854 3.44158 25.8554 3.56158C25.9854 3.65158 26.2054 3.56158 26.3954 3.53158C26.4554 3.53158 26.5154 3.52158 26.5354 3.55158C26.5554 3.59158 26.5154 3.63158 26.4654 3.67158C26.3654 3.74158 26.3054 3.81158 26.2354 3.89158C26.1154 4.03158 25.9554 4.13158 25.7654 4.20158C25.6054 4.25158 25.4654 4.33158 25.3254 4.42158C24.7554 4.77158 24.2054 5.14158 23.6754 5.55158C23.4354 5.73158 23.2154 5.93158 22.9954 6.13158C22.5254 6.59158 22.0554 7.05158 21.6054 7.54158C21.5054 7.65158 21.4054 7.76158 21.3054 7.87158C21.2054 7.98158 21.1054 8.10158 21.0154 8.21158C20.5554 8.78158 20.1054 9.37158 19.6654 9.96158C19.5854 10.0716 19.5054 10.1816 19.4254 10.2816C19.3454 10.3916 19.2554 10.4916 19.1554 10.5816C19.0754 10.7216 19.0354 10.8716 18.8954 10.9816C18.8454 11.0216 18.8054 11.1116 18.7554 11.1816C18.6554 11.3816 18.5054 11.5316 18.3854 11.7016C18.2854 11.8916 18.1554 12.0416 18.0254 12.1916C17.9654 12.2916 17.9254 12.4216 17.8654 12.5016C17.6654 12.7316 17.4954 12.9916 17.3554 13.2616C17.2054 13.5516 17.0054 13.7516 16.8454 14.0216C16.6054 14.4116 16.3854 14.8316 16.0954 15.1716C16.0554 15.2916 16.0054 15.4216 15.9454 15.5316C15.9254 15.5716 15.8654 15.6916 15.8154 15.7816C15.7654 15.8716 15.7154 15.9716 15.6554 16.0516L15.6254 16.1116L15.5254 16.3316C15.5054 16.4216 15.4754 16.5016 15.4454 16.5616C15.4154 16.6316 15.3654 16.6916 15.3254 16.7416C15.1654 17.1316 14.9954 17.4816 14.8254 17.8416C14.7554 18.0716 14.6654 18.2416 14.5754 18.3916C14.4954 18.5316 14.5554 18.2416 14.4754 18.3316C14.4054 18.4116 14.3554 18.5216 14.3154 18.6916C14.3254 18.7016 14.3254 18.7316 14.3154 18.7816C14.3654 18.7616 14.3754 18.8016 14.3154 18.9716C14.2654 19.2016 14.1754 19.4016 14.0854 19.5916C13.9754 19.8316 13.8654 20.0716 13.7554 20.3116C13.6954 20.5616 13.6154 20.6916 13.5354 20.8616C13.5354 20.8516 13.5154 20.8316 13.5154 20.8116H13.4954L13.4654 20.8316V20.8116L13.4854 20.7316V20.7116V20.6816C13.4754 20.7116 13.4654 20.7316 13.4554 20.7616C13.4454 20.7416 13.4354 20.7416 13.4154 20.7216L13.3754 20.6516L13.2954 20.5116C13.2954 20.5116 13.3054 20.5516 13.2954 20.5616L13.3254 20.6216C13.3554 20.7316 13.3454 20.7416 13.2754 20.6516C13.0054 20.2316 12.7454 19.7816 12.4954 19.3316C12.4154 19.2316 12.3354 19.1216 12.2854 18.9716C12.1754 18.7616 12.0454 18.6716 11.9354 18.4316C11.7854 18.2216 11.6454 17.9916 11.5154 17.7416C11.4354 17.6116 11.3054 17.4616 11.3754 17.4016L11.5354 17.6916C11.5354 17.6916 11.5554 17.6916 11.5754 17.7116C11.5954 17.7316 11.6154 17.7616 11.6354 17.7916L11.5154 17.6016C11.4754 17.5216 11.4354 17.4516 11.4154 17.3816C11.2954 17.1416 11.1554 16.9316 11.0154 16.7216C11.0154 16.8616 10.9954 16.8616 10.8454 16.6716C10.7554 16.5316 10.6654 16.3916 10.5754 16.2516C10.5054 16.1516 10.4354 16.0616 10.3654 15.9616L10.3054 15.8616L10.2454 15.7716C10.1754 15.6516 10.1054 15.5316 10.0454 15.4016L9.9454 15.2516C9.9454 15.2516 9.9054 15.1616 9.8854 15.1216C9.8654 15.0816 9.8354 15.0216 9.8754 15.0216C9.8854 15.0216 9.9154 15.0516 9.9354 15.0816C9.7254 14.8216 9.6754 14.5216 9.4854 14.2516C9.4054 14.0616 9.2954 13.8716 9.2154 13.6816C9.1354 13.4916 9.0254 13.2616 8.9054 13.1316C8.7354 12.9516 8.6754 12.7816 8.5854 12.5916C8.4954 12.4216 8.4054 12.2416 8.3054 12.0716C7.9554 11.4716 7.6854 10.8616 7.3954 10.2616C7.3754 10.2216 7.3754 10.1716 7.3654 10.1316C7.2754 9.98158 7.1954 9.83158 7.1654 9.68158L7.0454 9.45158C6.9554 9.40158 6.9154 9.31158 6.9054 9.22158C6.9054 9.19158 6.9354 9.17158 6.9554 9.16158C6.9854 9.14158 7.0254 9.18158 7.0454 9.23158C7.1454 9.39158 7.2454 9.56158 7.2754 9.73158C7.2754 9.73158 7.2954 9.79158 7.2954 9.82158C7.3654 9.93158 7.3854 10.0216 7.4054 10.1216C7.4854 10.2116 7.5554 10.2916 7.6254 10.4116C7.7054 10.5616 7.8054 10.7116 7.8954 10.8616L8.0354 10.9116C7.7854 10.3716 7.6254 9.83158 7.4154 9.29158C7.2954 8.97158 7.1954 8.66158 7.1054 8.35158C7.0454 8.15158 7.0354 7.99158 7.1554 7.95158C7.1954 7.94158 7.2054 7.87158 7.2754 7.90158C7.4054 8.02158 7.4154 8.18158 7.5054 8.31158C7.6154 8.44158 7.6254 8.70158 7.8254 8.70158C7.9954 8.88158 8.0354 9.07158 8.1054 9.27158C8.1254 9.30158 8.1054 9.33158 8.1454 9.36158C8.0554 9.07158 7.9354 8.78158 7.7954 8.48158C7.6954 8.19158 7.5454 7.89158 7.5354 7.63158C7.5654 7.58158 7.5054 7.50158 7.4854 7.43158L7.4654 7.48158ZM18.4554 11.3816V11.3616C18.4454 11.3816 18.4254 11.4016 18.4154 11.4116C18.4154 11.4316 18.3954 11.4516 18.3854 11.4716C18.3854 11.4816 18.3854 11.4916 18.3854 11.5016L18.4154 11.4616C18.4154 11.4616 18.4454 11.4016 18.4554 11.3716V11.3816ZM18.6154 11.1216H18.6554H18.6654C18.6654 11.0916 18.6854 11.0516 18.7054 11.0216L18.6754 11.0516C18.6754 11.0516 18.6354 11.1016 18.6154 11.1316V11.1216ZM17.6054 12.5316C17.6054 12.5316 17.6554 12.4416 17.6754 12.4016C17.6454 12.4416 17.6254 12.4916 17.6054 12.5316ZM8.3054 11.7716C8.3054 11.7716 8.2754 11.7416 8.2654 11.7316C8.2654 11.7316 8.2654 11.7316 8.2654 11.7416C8.2654 11.7616 8.2954 11.7816 8.3054 11.7716Z" fill="#209F2E"/>
<path d="M8.61539 12.9616C8.73539 13.1516 8.84539 13.3416 8.90539 13.5416C8.74539 13.3216 8.55539 13.1216 8.46539 12.8516C8.46539 12.8516 8.57539 12.9116 8.60539 12.9616H8.61539Z" fill="#209F2E"/>
<path d="M7.59544 8.43163L7.57544 8.41163C7.57544 8.41163 7.56544 8.36163 7.55544 8.33163C7.55544 8.29163 7.55544 8.25163 7.53544 8.21163L7.45544 7.92163C7.45544 7.92163 7.56544 7.92163 7.56544 7.97163C7.56544 8.17163 7.73544 8.38163 7.78544 8.57163C7.78544 8.57163 7.78544 8.58163 7.77544 8.59163C7.77544 8.59163 7.75544 8.59163 7.74544 8.59163C7.74544 8.59163 7.74544 8.61163 7.75544 8.61163C7.75544 8.64163 7.75544 8.67163 7.75544 8.71163L7.60544 8.42163L7.59544 8.43163Z" fill="#209F2E"/>
<path d="M8.32542 12.6516C8.32542 12.6516 8.30542 12.5816 8.32542 12.5916C8.34542 12.5916 8.36542 12.6016 8.38542 12.6216C8.44542 12.6916 8.52542 12.7716 8.47542 12.8416C8.41542 12.8016 8.36542 12.7316 8.33542 12.6516H8.32542Z" fill="#209F2E"/>
<path d="M8.06543 12.1516C8.06543 12.1516 8.06543 12.1216 8.06543 12.1116C8.07543 12.1116 8.09543 12.1316 8.10543 12.1416C8.17543 12.2216 8.22543 12.3116 8.24543 12.4016H8.23543C8.15543 12.3316 8.10543 12.2416 8.08543 12.1416L8.06543 12.1516Z" fill="#209F2E"/>
<path d="M9.01543 13.7117C9.01543 13.7117 9.09543 13.7617 9.12543 13.8317C9.29543 14.0417 9.39543 14.2917 9.54543 14.5117C9.55543 14.5717 9.57543 14.6317 9.53543 14.6317C9.44543 14.4717 9.32543 14.3117 9.26543 14.1417C9.15543 14.1217 9.12543 13.9917 9.07543 13.8917C9.07543 13.8917 9.05543 13.8617 9.04543 13.8517C9.02543 13.8017 8.95543 13.7217 9.01543 13.7217V13.7117Z" fill="#209F2E"/>
<path d="M7.5954 11.2615C7.6754 11.3215 7.7154 11.4115 7.7554 11.5015C7.8154 11.6215 7.9054 11.7415 7.9354 11.8815C7.8354 11.7615 7.7754 11.6415 7.7154 11.5115C7.6554 11.4315 7.6054 11.3415 7.5954 11.2515V11.2615Z" fill="#209F2E"/>
<path d="M7.40544 10.9116C7.40544 10.9116 7.46544 10.9516 7.48544 10.9916V11.0616C7.48544 11.0616 7.44544 11.0216 7.42544 10.9916C7.41544 10.9616 7.39544 10.9116 7.40544 10.9116Z" fill="#209F2E"/>
<path d="M6.78542 8.68166C6.78542 8.68166 6.82542 8.74166 6.83542 8.77166C6.80542 8.79166 6.77542 8.75166 6.74542 8.70166C6.74542 8.68166 6.76542 8.67166 6.78542 8.68166Z" fill="#209F2E"/>
<path d="M9.73539 14.8415L9.71539 14.8115L9.74539 14.8215L9.73539 14.8415Z" fill="#209F2E"/>
</svg>
