<svg width="21" height="14" viewBox="0 0 21 14" fill="none" xmlns="http://www.w3.org/2000/svg">
<path d="M6.17124 13.47L0.372217 7.72008L0.323738 7.67509C0.129705 7.48268 0.0168133 7.22893 1.14441e-05 6.92912L0.000980377 6.82833C0.0150566 6.59084 0.10582 6.36395 0.284676 6.16064L0.352339 6.0908L6.17124 0.320084C6.60157 -0.106642 7.29737 -0.106642 7.7277 0.320084C8.1606 0.749362 8.1606 1.4473 7.72773 1.87654L3.70993 5.86139L19.8579 5.86099C20.466 5.86099 20.9608 6.35167 20.9608 6.95928C20.9608 7.56689 20.466 8.05757 19.8579 8.05757L3.83959 8.05797L7.7277 11.9135C8.1606 12.3428 8.1606 13.0407 7.7277 13.47C7.29737 13.8967 6.60157 13.8967 6.17124 13.47Z" fill="black"/>
</svg>
