<svg width="14" height="18" viewBox="0 0 14 18" fill="none" xmlns="http://www.w3.org/2000/svg">
<path fill-rule="evenodd" clip-rule="evenodd" d="M7 5.0625C6.06794 5.0625 5.3125 5.81794 5.3125 6.75C5.3125 7.68206 6.06794 8.4375 7 8.4375C7.93206 8.4375 8.6875 7.68206 8.6875 6.75C8.6875 5.81794 7.93206 5.0625 7 5.0625ZM7 9.5625C5.44694 9.5625 4.1875 8.30363 4.1875 6.75C4.1875 5.19637 5.44694 3.9375 7 3.9375C8.55306 3.9375 9.8125 5.19637 9.8125 6.75C9.8125 8.30363 8.55306 9.5625 7 9.5625ZM7 0C3.27231 0 0.25 3.02231 0.25 6.75C0.25 9.57263 5.87781 18.0062 7 18C8.10475 18.0062 13.75 9.53438 13.75 6.75C13.75 3.02231 10.7277 0 7 0Z" fill="white"/>
</svg>
