<svg width="15" height="19" viewBox="0 0 15 19" fill="none" xmlns="http://www.w3.org/2000/svg">
<path fill-rule="evenodd" clip-rule="evenodd" d="M7.65424 5.5625C6.72217 5.5625 5.96674 6.31794 5.96674 7.25C5.96674 8.18206 6.72217 8.9375 7.65424 8.9375C8.5863 8.9375 9.34174 8.18206 9.34174 7.25C9.34174 6.31794 8.5863 5.5625 7.65424 5.5625ZM7.65424 10.0625C6.10117 10.0625 4.84174 8.80363 4.84174 7.25C4.84174 5.69637 6.10117 4.4375 7.65424 4.4375C9.2073 4.4375 10.4667 5.69637 10.4667 7.25C10.4667 8.80363 9.2073 10.0625 7.65424 10.0625ZM7.65424 0.5C3.92655 0.5 0.904236 3.52231 0.904236 7.25C0.904236 10.0726 6.53205 18.5062 7.65424 18.5C8.75899 18.5062 14.4042 10.0344 14.4042 7.25C14.4042 3.52231 11.3819 0.5 7.65424 0.5Z" fill="black"/>
</svg>
