<svg width="36" height="56" viewBox="0 0 36 56" fill="none" xmlns="http://www.w3.org/2000/svg">
<path d="M14.8242 55.5289C13.6915 55.5005 12.5621 55.3445 11.4304 55.26C11.0544 55.223 10.6758 55.222 10.2996 55.257C9.94517 55.3 9.57075 55.6394 9.24981 55.281C9.00366 55.0014 8.818 54.674 8.70444 54.3192C7.92859 51.8522 7.16022 49.3852 6.42936 46.9061C5.84048 44.9105 5.32257 42.8954 4.73968 40.8982C4.47573 39.9919 4.08528 39.1191 3.83983 38.2073C3.80877 37.9607 3.68585 37.735 3.4956 37.5751C3.30534 37.4152 3.06176 37.333 2.81354 37.3449C2.26851 37.348 1.74306 37.1421 1.34531 36.7695C0.947564 36.3968 0.707815 35.8859 0.675455 35.3418C0.433501 33.5961 -0.0344511 31.8805 0.0705289 30.0928C0.0681162 29.8409 0.081668 29.5892 0.111048 29.339C0.137109 29.0525 0.248333 28.7803 0.430446 28.5575C0.612558 28.3348 0.857189 28.1717 1.13283 28.0892C1.852 27.8611 2.59225 27.7057 3.34243 27.6253C4.22976 27.5673 5.12161 27.5728 6.01294 27.5783C6.38587 27.5783 6.7593 27.5828 7.13223 27.5783C7.25779 27.5617 7.3852 27.5666 7.50911 27.5928C9.53873 28.3187 11.4934 27.5673 13.4715 27.2984C13.7839 27.2579 14.0989 27.2229 14.4103 27.1734C15.0962 27.0624 15.2802 26.9289 15.3736 26.2236C15.519 25.0341 15.7903 23.8634 16.183 22.7312C16.1994 22.6711 16.2 22.6077 16.1847 22.5472C16.1695 22.4867 16.1389 22.4312 16.0959 22.386C16.053 22.3407 15.9991 22.3073 15.9395 22.289C15.8798 22.2707 15.8165 22.268 15.7556 22.2813C14.764 22.4651 13.7467 22.4622 12.7562 22.2728C12.5041 22.258 12.2551 22.2097 12.0158 22.1294C10.0851 21.172 8.19148 20.1702 7.0457 18.2036C6.56801 17.4557 6.33753 16.5766 6.38683 15.6906C6.46981 14.5408 6.77229 14.1409 7.92407 13.8979C9.65768 13.5113 11.4673 13.6523 13.1201 14.3027C14.7729 14.953 16.1934 16.083 17.1988 17.5472C17.3779 17.8051 17.5737 18.0509 17.7852 18.283C17.8314 18.311 17.884 18.3266 17.938 18.3284C17.992 18.3303 18.0456 18.3183 18.0936 18.2935C18.227 18.1617 18.3444 18.0148 18.4436 17.8556C19.3719 16.5804 20.2932 15.3021 21.229 14.0334C21.5085 13.6534 21.479 13.562 20.9706 13.4625C19.8201 13.2572 18.7339 12.7847 17.7992 12.0832C16.8646 11.3816 16.1076 10.4706 15.5891 9.42329C14.6758 7.47366 13.8849 5.46654 14.0614 3.24746C14.1289 2.55931 14.2577 1.87853 14.4463 1.2133C14.4757 1.08868 14.5321 0.971992 14.6113 0.871448C14.6906 0.770904 14.791 0.688964 14.9053 0.63132C15.0196 0.573677 15.1452 0.541724 15.2731 0.537771C15.4011 0.533819 15.5284 0.557959 15.6461 0.608436C16.1315 0.742081 16.6008 0.928296 17.0458 1.16381C18.9782 2.24781 20.7318 3.62343 22.2448 5.24208C22.8517 5.84824 23.2787 6.61079 23.4782 7.44502C23.6778 8.27926 23.6421 9.15251 23.3751 9.96768C23.1481 10.4837 23.0618 11.0507 23.1252 11.6109C23.6781 11.6873 24.0575 11.2929 24.4859 11.069C26.6262 9.94191 29.0924 9.59627 31.4601 10.0916C32.1803 10.209 32.8657 10.4846 33.4667 10.8985C34.0677 11.3125 34.5695 11.8546 34.9359 12.4857C35.4013 13.272 35.3183 13.6964 34.6775 14.3173C33.6866 15.2781 32.4049 15.6726 31.1581 16.0945C29.4563 16.6251 27.6324 16.6182 25.9346 16.075C25.0213 15.8045 24.1912 15.3075 23.5216 14.6302C23.2576 14.3763 22.9472 14.4398 22.7522 14.7887C22.2593 15.6701 21.7614 16.5504 21.3355 17.4632C21.1696 17.8181 20.6616 18.2031 21.0726 18.632C21.3635 18.9319 21.7854 18.596 22.1479 18.59C22.5203 18.5674 22.8939 18.6092 23.2521 18.7135C23.466 18.7757 23.6597 18.8933 23.8134 19.0545C23.9672 19.2157 24.0756 19.4146 24.1277 19.6312C24.1797 19.8478 24.1736 20.0742 24.11 20.2877C24.0463 20.5011 23.9273 20.694 23.7651 20.8466C23.1263 21.4644 22.3505 21.9225 21.501 22.1833C20.9591 22.3503 20.4107 22.5003 19.8573 22.6248C19.6051 22.6592 19.3694 22.7699 19.1818 22.942C18.9942 23.114 18.8636 23.3393 18.8075 23.5876C18.613 24.3809 18.4135 25.1733 18.2336 25.9701C18.2229 26.0947 18.2621 26.2183 18.3425 26.314C18.4229 26.4097 18.538 26.4696 18.6625 26.4805C20.6201 26.424 22.5763 26.37 24.5329 26.2981C25.4777 26.2621 26.4205 26.1821 27.3648 26.1246C28.3736 26.0636 29.3849 26.0336 30.3903 25.9371C31.9844 25.7871 32.8733 26.7415 33.3282 28.0817C33.6078 28.9255 33.7018 29.8198 33.6037 30.7032C33.5127 31.5801 33.4972 32.4634 33.4172 33.3432C33.381 33.7803 33.3023 34.2127 33.1823 34.6344C32.9243 35.5003 32.4324 36.0462 31.4076 35.9747C30.8922 35.9397 30.7172 36.1882 30.6992 36.6426C30.6835 36.8955 30.6835 37.149 30.6992 37.4019C30.8947 39.755 30.4703 42.0556 30.1174 44.3626C29.7369 46.8536 29.3675 49.3471 28.9945 51.8387C29.3305 53.3624 28.1607 53.9303 27.1894 54.5521C26.4184 54.9956 25.5428 55.2248 24.6534 55.216C23.5846 55.2605 22.5173 55.382 21.4485 55.466C21.071 55.494 20.6926 55.5215 20.3147 55.522C19.1449 55.527 17.9741 55.543 16.8043 55.543C16.147 55.549 15.4866 55.5439 14.8242 55.5289ZM13.9574 51.3028C13.9484 51.4293 13.9145 51.5529 13.8575 51.6662C13.7265 51.9472 13.7574 52.1746 14.0964 52.1991C14.6608 52.2602 15.2295 52.2721 15.796 52.2346C17.7397 52.0321 19.6793 51.7977 21.6174 51.5497C22.8047 51.3998 23.986 51.1968 25.1713 51.0263C25.3284 51.013 25.4763 50.9468 25.5908 50.8384C25.7053 50.7301 25.7797 50.5861 25.8016 50.4299C25.8736 50.1245 26.0096 49.8301 26.0626 49.5211C26.58 46.4757 27.1389 43.4343 27.5718 40.3728C27.6739 39.1769 27.6906 37.9753 27.6218 36.777C27.6237 36.7132 27.6123 36.6496 27.5884 36.5904C27.5645 36.5311 27.5287 36.4774 27.483 36.4327C27.4374 36.388 27.3829 36.3533 27.3232 36.3306C27.2635 36.308 27.1997 36.298 27.1359 36.3012C26.7475 36.3042 26.3591 36.3012 25.9696 36.3012C24.8426 36.2759 23.7149 36.3117 22.5918 36.4086C21.33 36.5426 20.0743 36.5931 18.8125 36.6046C17.8627 36.6146 16.9158 36.6076 15.9675 36.6076C15.9675 36.5751 15.964 36.5426 15.9615 36.5076C13.3785 36.6631 10.797 36.829 8.21302 36.9735C5.86347 37.106 5.88594 36.8505 6.89375 39.1016C7.1612 39.7015 7.23468 40.4594 7.93054 40.8138C8.40995 40.5218 8.88835 40.2279 9.37076 39.9434C9.62851 39.7604 9.90754 39.6094 10.2017 39.4935C10.6214 39.369 11.0542 39.2935 11.4914 39.2686C11.6506 39.2567 11.8096 39.2946 11.9463 39.3771C12.0829 39.4596 12.1906 39.5826 12.2542 39.729C12.2961 39.8799 12.2864 40.0405 12.2268 40.1853C12.1673 40.3301 12.0612 40.451 11.9253 40.5288C11.6024 40.7248 11.2424 40.8628 10.9325 41.0747C10.2051 41.5746 9.47679 42.0745 8.79342 42.6299C8.64041 42.7477 8.53654 42.9181 8.50191 43.108C8.46728 43.298 8.50435 43.494 8.60595 43.6582C8.76842 43.9737 8.9014 44.0821 9.13936 43.9557C9.75024 43.6282 10.3561 43.2878 10.9765 42.9799C11.1997 42.8579 11.4458 42.7836 11.6992 42.7615C11.9526 42.7395 12.2078 42.7703 12.4487 42.8519C12.6619 42.9635 12.8242 43.1523 12.9026 43.3798C12.9154 43.4709 12.9055 43.5638 12.8736 43.6502C12.8418 43.7365 12.7891 43.8137 12.7202 43.8747C12.3537 44.1126 11.9383 44.2711 11.5564 44.4871C10.899 44.8565 10.2411 45.2264 9.60674 45.6343C9.34679 45.8028 9.37727 46.3842 9.61772 46.6727C9.83768 46.9341 10.0676 46.7726 10.2871 46.6656C10.7985 46.4157 11.2984 46.1452 11.8188 45.9158C12.2798 45.6906 12.8111 45.6566 13.297 45.8213C13.378 45.8629 13.4492 45.9215 13.5054 45.9932C13.5617 46.0648 13.6018 46.1477 13.623 46.2362C13.6378 46.3252 13.6323 46.4163 13.6071 46.5029C13.5818 46.5894 13.5374 46.6691 13.477 46.7361C13.2288 46.9261 12.959 47.086 12.6732 47.2125C11.9948 47.547 11.2984 47.8489 10.631 48.2048C10.5729 48.2301 10.5211 48.2679 10.4793 48.3154C10.4374 48.3629 10.4064 48.4191 10.3886 48.4799C10.3708 48.5407 10.3666 48.6047 10.3763 48.6673C10.386 48.7299 10.4093 48.7896 10.4446 48.8422C10.5831 49.0607 10.766 49.2587 11.0554 49.1282C11.4554 48.9482 11.8313 48.6938 12.2437 48.5498C12.5407 48.4556 12.8547 48.4279 13.1636 48.4688C13.2506 48.4909 13.3315 48.5325 13.4 48.5906C13.4685 48.6486 13.5229 48.7215 13.559 48.8038C13.5884 48.8898 13.5996 48.981 13.5921 49.0716C13.5845 49.1622 13.5582 49.2502 13.515 49.3302C13.3753 49.5384 13.1938 49.7152 12.9821 49.8495C12.6136 50.0915 12.2103 50.2805 11.8393 50.5219C11.6917 50.6368 11.5644 50.7757 11.4629 50.9328C11.4512 50.9617 11.447 50.993 11.4507 51.0239C11.4545 51.0548 11.4661 51.0842 11.4844 51.1093C11.5674 51.1913 11.6978 51.3282 11.7658 51.3058C12.2942 51.1348 12.8036 50.9004 13.3375 50.7474C13.3736 50.737 13.411 50.7318 13.4485 50.7319C13.5909 50.7424 13.7235 50.8079 13.8185 50.9144C13.9134 51.0209 13.9632 51.1602 13.9574 51.3028ZM4.4912 34.7584C4.32741 34.774 4.1673 34.8164 4.01729 34.8839C4.01792 34.9366 4.03222 34.9883 4.05878 35.0339C4.14265 35.1146 4.25393 35.1606 4.37031 35.1626C4.48668 35.1647 4.59953 35.1226 4.68617 35.0449C4.71998 35.009 4.74846 34.9684 4.77068 34.9244C4.6782 34.8649 4.58569 34.7564 4.49321 34.7564L4.4912 34.7584ZM8.16701 31.743C8.25519 31.7672 8.33685 31.8107 8.40604 31.8705C8.47523 31.9303 8.53023 32.0047 8.56696 32.0885C8.66052 32.3233 8.67298 32.5826 8.60241 32.8253C8.28197 33.5537 8.73092 33.9846 9.13985 34.446C9.27132 34.596 9.53325 34.5695 9.58324 34.4045C9.67273 34.1045 9.74771 33.8046 9.8202 33.5047C9.92818 33.0548 10.0966 32.6548 10.612 32.5579C10.944 32.4969 11.1865 32.8418 11.2904 33.5077C11.3004 33.5687 11.2854 33.6356 11.2954 33.6971C11.3829 34.265 11.4844 34.3855 11.9723 34.3795C13.739 34.353 15.4976 34.2985 17.2613 34.098C19.6423 33.8266 22.0428 33.7351 24.4354 33.5641C24.4999 33.5591 24.5614 33.5542 24.6244 33.5542C24.8139 33.5681 25.003 33.5222 25.1651 33.4229C25.3272 33.3236 25.454 33.176 25.5277 33.0008C25.7122 32.6008 25.9267 32.2154 26.1696 31.848C26.3183 31.6461 26.5188 31.4882 26.75 31.3911C26.8375 31.3665 26.9294 31.3613 27.0191 31.376C27.1089 31.3906 27.1943 31.4248 27.2694 31.476C27.3411 31.5318 27.3986 31.6037 27.4373 31.6859C27.4761 31.7681 27.4949 31.8582 27.4923 31.949C27.3618 32.3624 27.1424 32.7448 26.9859 33.1538C26.9619 33.2177 27.1119 33.4337 27.1734 33.4297C28.0482 33.3797 28.9231 33.3137 29.7949 33.2147C29.8854 33.198 29.9706 33.16 30.0436 33.104C30.1166 33.0479 30.1753 32.9754 30.2148 32.8923C30.4923 31.7955 30.8362 30.7022 30.6823 29.5429C30.6667 29.3882 30.5912 29.2457 30.472 29.1458C30.3529 29.0459 30.1994 28.9964 30.0444 29.008C29.9184 29.008 29.7944 29.0266 29.6664 29.0316C26.0076 29.178 22.3488 29.3184 18.691 29.4739C18.1251 29.4969 17.5602 29.5739 16.9983 29.6434C15.6861 29.8124 14.3784 30.0469 13.0606 30.1513C11.6774 30.2588 10.2841 30.2478 8.8949 30.2868C8.8949 30.2733 8.8949 30.2603 8.8949 30.2483C8.32651 30.2483 7.75707 30.2348 7.18868 30.2483C6.24236 30.2748 5.29357 30.2768 4.35224 30.3673C3.62588 30.4343 3.39494 30.7367 3.36495 31.5036C3.37421 31.8743 3.40927 32.244 3.46991 32.6099C3.94482 32.5219 3.72634 32.0255 3.9573 31.784C4.16876 31.5616 4.34075 31.3011 4.53971 31.0661C4.56441 31.0461 4.59353 31.0323 4.62465 31.0257C4.65578 31.0192 4.68803 31.0202 4.71869 31.0287C4.74576 31.0424 4.76923 31.0622 4.78728 31.0866C4.80533 31.111 4.81747 31.1393 4.82268 31.1691C4.85717 31.7275 4.87963 32.2859 4.91513 32.8448C4.91813 32.8973 4.9801 32.9573 5.03009 32.9893C5.05059 33.0018 5.1361 32.9588 5.15409 32.9228C5.29757 32.6443 5.41954 32.3544 5.57101 32.0819C5.72248 31.8095 5.90343 31.4795 6.25636 31.551C6.36034 31.573 6.41882 31.9935 6.43382 32.2324C6.45581 32.6078 6.40934 32.9863 6.42784 33.3617C6.44448 33.4173 6.4751 33.4677 6.51675 33.5082C6.5584 33.5486 6.60975 33.5777 6.66583 33.5926C6.72543 33.594 6.78441 33.5808 6.83773 33.5541C6.89105 33.5275 6.93706 33.4882 6.97174 33.4397C7.21819 32.9368 7.41667 32.4099 7.68212 31.9155C7.73482 31.8579 7.79926 31.8124 7.87111 31.7819C7.94295 31.7515 8.02054 31.7368 8.09854 31.739C8.12146 31.7382 8.14438 31.7393 8.16701 31.743ZM12.9381 17.7617C12.8844 17.9699 12.8851 18.1885 12.9402 18.3964C12.9953 18.6043 13.1028 18.7946 13.2525 18.9489C13.292 18.9884 13.384 19.0454 13.407 19.0279C13.4908 18.9713 13.5621 18.8984 13.617 18.8135C13.6455 18.769 13.628 18.694 13.641 18.477C13.5961 18.2338 13.5364 17.9936 13.462 17.7577C13.4284 17.7077 13.384 17.6658 13.3321 17.6352C13.2802 17.6046 13.2221 17.586 13.1621 17.5807H13.1546C13.1063 17.5908 13.0613 17.6125 13.0234 17.6441C12.9856 17.6756 12.9561 17.716 12.9376 17.7617H12.9381ZM11.3769 17.2618C11.2884 17.6117 10.983 17.9311 11.194 18.3266C11.2528 18.4332 11.3407 18.5209 11.4474 18.5795C11.4854 18.599 11.6434 18.4946 11.6583 18.4296C11.6846 18.2623 11.6965 18.093 11.6939 17.9236C11.7042 17.718 11.7011 17.512 11.6848 17.3067C11.6758 17.2412 11.5704 17.1833 11.4959 17.1383C11.4426 17.1649 11.4003 17.2093 11.3764 17.2638L11.3769 17.2618ZM9.96714 16.7714L10.0877 16.7858L10.0377 16.6504L9.96714 16.7714ZM29.8094 12.6146C29.7091 12.7656 29.6263 12.9275 29.5625 13.0971C29.6049 13.2807 29.6692 13.4586 29.7539 13.627C29.7935 13.6691 29.8435 13.7003 29.8988 13.7173C29.9541 13.7343 30.0129 13.7366 30.0693 13.7239C30.1538 13.657 30.2229 13.5729 30.2721 13.4771C30.3213 13.3813 30.3495 13.276 30.3546 13.1684C30.3598 13.0608 30.3418 12.9534 30.302 12.8533C30.2622 12.7532 30.2015 12.6628 30.1238 12.5881C30.0864 12.5651 30.0427 12.5544 29.9988 12.5576C29.9304 12.5533 29.8628 12.5743 29.8089 12.6166L29.8094 12.6146ZM27.8128 13.0771C27.7916 13.1327 27.7818 13.1919 27.7841 13.2514C27.7863 13.3108 27.8005 13.3692 27.8258 13.423C27.8511 13.4769 27.8869 13.525 27.9312 13.5647C27.9756 13.6044 28.0274 13.6347 28.0837 13.6539C28.1323 13.6539 28.18 13.6415 28.2224 13.6179C28.2648 13.5942 28.3006 13.5602 28.3262 13.519C28.3555 13.3456 28.3482 13.1679 28.3047 12.9976C28.2857 12.9276 28.1342 12.8931 28.0322 12.8381C27.9573 12.9166 27.8392 12.9861 27.8123 13.0796L27.8128 13.0771ZM25.9556 13.266C26.0181 13.3335 26.0756 13.448 26.1446 13.4535C26.2356 13.4625 26.3336 13.3865 26.4285 13.3475C26.3711 13.2785 26.315 13.1545 26.2555 13.153H26.2441C26.1415 13.1731 26.0435 13.2121 25.9551 13.268L25.9556 13.266ZM31.5426 13.0231C31.569 13.1237 31.6039 13.2219 31.647 13.3165C31.7095 13.2565 31.7715 13.1961 31.834 13.1366C31.777 13.0611 31.7185 12.9866 31.6605 12.9146C31.6185 12.9531 31.5371 12.9981 31.5441 13.0251L31.5426 13.0231ZM22.9717 11.9288C23.0167 11.8288 23.0622 11.7288 23.1076 11.6314C22.9092 11.6499 22.7497 11.6873 22.9712 11.9298L22.9717 11.9288ZM20.5392 8.69442C20.5217 8.83339 20.6446 8.99185 20.7016 9.14032C20.81 9.078 20.9152 9.0101 21.0166 8.93687C21.7164 8.39197 21.8164 8.07953 21.428 7.36667C21.2673 7.13302 21.0775 6.92082 20.8631 6.73526C20.7501 7.39064 20.6277 8.0405 20.5387 8.69637L20.5392 8.69442ZM18.7705 5.61346C18.8425 5.66834 18.9018 5.73813 18.9444 5.81802C18.9871 5.8979 19.0119 5.98601 19.0174 6.07639C19.0354 6.50981 18.9834 6.94525 18.9834 7.37967C18.9981 7.56322 19.0292 7.74504 19.0764 7.92302C19.1839 7.74624 19.2796 7.56255 19.3629 7.37314C19.6283 6.65328 20.1822 6.5613 20.8261 6.65178C20.8371 6.54561 20.8227 6.43837 20.7841 6.33885C19.9083 5.24482 18.823 4.33659 17.5917 3.66736C17.5494 3.6555 17.5046 3.6555 17.4622 3.66736C17.6517 4.03848 17.7048 4.46435 17.6122 4.87063C17.5067 5.35063 17.4646 5.8424 17.4868 6.33336C17.4833 6.38935 17.5332 6.4478 17.5587 6.50429C17.6087 6.47579 17.6692 6.4588 17.6992 6.4183C17.8457 6.21834 17.9742 6.00738 18.1276 5.81442C18.1781 5.74115 18.2443 5.68008 18.3213 5.63556C18.3984 5.59103 18.4844 5.56421 18.573 5.55702C18.6426 5.55937 18.7104 5.57948 18.77 5.61548L18.7705 5.61346ZM16.4209 3.26394C16.5169 3.40041 16.5929 3.62688 16.7124 3.65388C16.9445 3.68026 17.1791 3.67335 17.4093 3.63337C17.3993 3.27444 17.1053 3.14543 16.8339 3.05145C16.8245 3.04838 16.8147 3.0469 16.8049 3.047C16.7014 3.051 16.5469 3.19842 16.4209 3.2679V3.26394ZM21.5915 45.4324C21.5681 45.3755 21.5564 45.3145 21.5568 45.2529C21.5572 45.1914 21.5698 45.1306 21.594 45.074C21.9572 44.2095 22.6325 43.5135 23.4856 43.1243C23.6111 43.0678 23.8305 43.1689 23.9775 43.2478C24.0315 43.2763 24.051 43.4783 24.0085 43.5633C23.6039 44.4006 23.0229 45.1404 22.3053 45.7319C22.2268 45.7974 22.0729 45.7699 21.8934 45.7944C21.778 45.6881 21.6765 45.5677 21.5915 45.4359V45.4324ZM20.2957 44.0117C20.1687 43.8767 20.0869 43.7056 20.0617 43.522C20.0364 43.3385 20.0689 43.1516 20.1547 42.9874C20.6727 42.051 21.3981 41.2456 22.2753 40.6328C22.4285 40.5283 22.6098 40.473 22.7952 40.4743C22.9382 40.4873 23.0672 40.6513 23.2091 40.7528C23.1591 40.9782 23.1751 41.2027 23.0737 41.3317C22.3863 42.2225 21.6854 43.1058 20.9621 43.9677C20.9185 44.0208 20.864 44.0638 20.8022 44.0936C20.7404 44.1235 20.6728 44.1396 20.6042 44.1407C20.4891 44.1406 20.3786 44.0956 20.2962 44.0151L20.2957 44.0117Z" fill="white"/>
</svg>
