<svg width="36" height="55" viewBox="0 0 36 55" fill="none" xmlns="http://www.w3.org/2000/svg">
<path d="M14.7688 54.9876C13.636 54.9591 12.5067 54.8031 11.3749 54.7186C10.999 54.6817 10.6203 54.6807 10.2442 54.7156C9.88975 54.7586 9.51533 55.0981 9.19439 54.7396C8.94824 54.46 8.76258 54.1326 8.64902 53.7778C7.87317 51.3108 7.10481 48.8438 6.37394 46.3648C5.78506 44.3691 5.26715 42.354 4.68426 40.3569C4.42031 39.4505 4.02986 38.5777 3.78441 37.6659C3.75335 37.4194 3.63044 37.1936 3.44018 37.0337C3.24992 36.8738 3.00634 36.7916 2.75812 36.8035C2.21309 36.8067 1.68764 36.6007 1.28989 36.2281C0.892144 35.8554 0.652396 35.3445 0.620035 34.8004C0.378081 33.0548 -0.0898711 31.3391 0.0151089 29.5514C0.0126963 29.2995 0.0262481 29.0478 0.0556286 28.7976C0.0816893 28.5111 0.192913 28.2389 0.375026 28.0161C0.557138 27.7934 0.801769 27.6303 1.07741 27.5478C1.79658 27.3198 2.53683 27.1643 3.28701 27.0839C4.17434 27.0259 5.06619 27.0314 5.95752 27.0369C6.33045 27.0369 6.70388 27.0414 7.07681 27.0369C7.20237 27.0203 7.32979 27.0252 7.4537 27.0514C9.48331 27.7773 11.4379 27.0259 13.4161 26.757C13.7285 26.7165 14.0435 26.6815 14.3549 26.632C15.0408 26.521 15.2247 26.3875 15.3182 25.6822C15.4636 24.4927 15.7349 23.322 16.1276 22.1899C16.144 22.1297 16.1445 22.0663 16.1293 22.0058C16.114 21.9453 16.0835 21.8898 16.0405 21.8446C15.9975 21.7994 15.9437 21.7659 15.884 21.7476C15.8244 21.7293 15.7611 21.7267 15.7002 21.7399C14.7085 21.9237 13.6913 21.9208 12.7007 21.7314C12.4487 21.7166 12.1997 21.6683 11.9603 21.588C10.0297 20.6307 8.13606 19.6288 6.99028 17.6622C6.51259 16.9143 6.28211 16.0352 6.33141 15.1492C6.4144 13.9994 6.71687 13.5995 7.86866 13.3565C9.60226 12.97 11.4119 13.1109 13.0647 13.7613C14.7175 14.4116 16.138 15.5416 17.1434 17.0058C17.3224 17.2638 17.5183 17.5095 17.7298 17.7417C17.776 17.7696 17.8286 17.7852 17.8826 17.7871C17.9366 17.7889 17.9902 17.7769 18.0382 17.7522C18.1716 17.6204 18.289 17.4734 18.3881 17.3143C19.3165 16.039 20.2378 14.7607 21.1736 13.492C21.4531 13.1121 21.4236 13.0206 20.9152 12.9211C19.7647 12.7158 18.6784 12.2433 17.7438 11.5418C16.8091 10.8403 16.0522 9.92924 15.5337 8.8819C14.6204 6.93227 13.8295 4.92516 14.006 2.70608C14.0735 2.01793 14.2023 1.33715 14.3909 0.67192C14.4203 0.547296 14.4766 0.43061 14.5559 0.330066C14.6352 0.229522 14.7355 0.147582 14.8499 0.0899385C14.9642 0.0322952 15.0897 0.000342114 15.2177 -0.00361059C15.3457 -0.0075633 15.473 0.0165769 15.5907 0.0670547C16.0761 0.200699 16.5454 0.386915 16.9904 0.62243C18.9228 1.70643 20.6764 3.08205 22.1894 4.70069C22.7963 5.30685 23.2233 6.06941 23.4228 6.90364C23.6224 7.73788 23.5866 8.61112 23.3197 9.4263C23.0926 9.94231 23.0064 10.5093 23.0697 11.0695C23.6226 11.146 24.0021 10.7515 24.4305 10.5276C26.5708 9.40053 29.037 9.05489 31.4046 9.55023C32.1249 9.66761 32.8103 9.94319 33.4113 10.3571C34.0123 10.7711 34.514 11.3132 34.8805 11.9443C35.3459 12.7307 35.2629 13.155 34.622 13.7759C33.6312 14.7367 32.3495 15.1312 31.1027 15.5531C29.4009 16.0837 27.577 16.0768 25.8792 15.5336C24.9659 15.2632 24.1358 14.7662 23.4661 14.0889C23.2022 13.8349 22.8918 13.8984 22.6968 14.2473C22.2039 15.1287 21.706 16.009 21.2801 16.9218C21.1141 17.2767 20.6062 17.6617 21.0172 18.0906C21.3081 18.3905 21.73 18.0546 22.0924 18.0486C22.4649 18.026 22.8385 18.0678 23.1967 18.1721C23.4106 18.2343 23.6043 18.352 23.758 18.5131C23.9118 18.6743 24.0202 18.8732 24.0722 19.0898C24.1243 19.3064 24.1182 19.5328 24.0545 19.7463C23.9909 19.9597 23.8719 20.1526 23.7096 20.3052C23.0709 20.9231 22.2951 21.3811 21.4455 21.6419C20.9036 21.8089 20.3553 21.9589 19.8019 22.0834C19.5497 22.1178 19.314 22.2285 19.1264 22.4006C18.9388 22.5726 18.8082 22.7979 18.7521 23.0462C18.5576 23.8395 18.3581 24.6319 18.1782 25.4287C18.1675 25.5533 18.2067 25.6769 18.2871 25.7726C18.3675 25.8683 18.4826 25.9282 18.6071 25.9391C20.5647 25.8827 22.5209 25.8287 24.4775 25.7567C25.4223 25.7207 26.3651 25.6407 27.3094 25.5832C28.3182 25.5222 29.3295 25.4922 30.3348 25.3957C31.929 25.2458 32.8179 26.2001 33.2728 27.5403C33.5524 28.3841 33.6464 29.2784 33.5483 30.1618C33.4573 31.0387 33.4418 31.922 33.3618 32.8018C33.3256 33.2389 33.2469 33.6713 33.1268 34.093C32.8689 34.9589 32.377 35.5048 31.3522 35.4333C30.8368 35.3983 30.6618 35.6468 30.6438 36.1012C30.6281 36.3541 30.6281 36.6077 30.6438 36.8605C30.8393 39.2136 30.4149 41.5142 30.0619 43.8212C29.6815 46.3123 29.312 48.8058 28.9391 51.2973C29.275 52.821 28.1053 53.3889 27.134 54.0108C26.3629 54.4542 25.4874 54.6834 24.598 54.6746C23.5292 54.7191 22.4619 54.8406 21.3931 54.9246C21.0156 54.9526 20.6372 54.9801 20.2593 54.9806C19.0895 54.9856 17.9187 55.0016 16.7489 55.0016C16.0915 55.0076 15.4312 55.0026 14.7688 54.9876ZM13.902 50.7614C13.893 50.8879 13.859 51.0115 13.802 51.1248C13.6711 51.4058 13.702 51.6333 14.0409 51.6578C14.6054 51.7188 15.1741 51.7307 15.7406 51.6932C17.6843 51.4907 19.6239 51.2563 21.562 51.0083C22.7493 50.8584 23.9306 50.6554 25.1159 50.4849C25.273 50.4716 25.4209 50.4054 25.5354 50.2971C25.6499 50.1887 25.7243 50.0447 25.7462 49.8886C25.8182 49.5831 25.9542 49.2887 26.0072 48.9797C26.5246 45.9343 27.0835 42.8929 27.5164 39.8315C27.6185 38.6356 27.6351 37.4339 27.5664 36.2356C27.5683 36.1718 27.5569 36.1082 27.533 36.049C27.5091 35.9897 27.4733 35.9361 27.4276 35.8913C27.382 35.8466 27.3275 35.8119 27.2678 35.7893C27.2081 35.7666 27.1443 35.7566 27.0805 35.7598C26.6921 35.7628 26.3037 35.7598 25.9142 35.7598C24.7872 35.7345 23.6595 35.7704 22.5363 35.8672C21.2746 36.0012 20.0188 36.0517 18.7571 36.0632C17.8073 36.0732 16.8604 36.0662 15.9121 36.0662C15.9121 36.0337 15.9086 36.0012 15.9061 35.9662C13.3231 36.1217 10.7416 36.2877 8.1576 36.4321C5.80805 36.5646 5.83053 36.3091 6.83833 38.5602C7.10578 39.1601 7.17926 39.918 7.87512 40.2724C8.35453 39.9805 8.83293 39.6865 9.31534 39.402C9.57309 39.219 9.85213 39.068 10.1462 38.9522C10.566 38.8276 10.9988 38.7521 11.436 38.7272C11.5952 38.7153 11.7542 38.7532 11.8908 38.8357C12.0275 38.9182 12.1352 39.0412 12.1988 39.1876C12.2406 39.3385 12.231 39.4991 12.1714 39.6439C12.1119 39.7888 12.0058 39.9096 11.8699 39.9874C11.547 40.1834 11.187 40.3214 10.8771 40.5333C10.1497 41.0333 9.42137 41.5331 8.738 42.0885C8.58499 42.2063 8.48112 42.3767 8.44649 42.5667C8.41186 42.7566 8.44893 42.9526 8.55053 43.1168C8.713 43.4323 8.84598 43.5407 9.08394 43.4143C9.69482 43.0868 10.3007 42.7464 10.9211 42.4385C11.1443 42.3166 11.3904 42.2422 11.6438 42.2202C11.8972 42.1981 12.1524 42.2289 12.3933 42.3105C12.6065 42.4221 12.7688 42.6109 12.8472 42.8384C12.86 42.9295 12.8501 43.0224 12.8182 43.1088C12.7864 43.1951 12.7337 43.2723 12.6647 43.3333C12.2983 43.5712 11.8829 43.7298 11.501 43.9457C10.8436 44.3152 10.1857 44.685 9.55132 45.093C9.29137 45.2614 9.32185 45.8428 9.5623 46.1313C9.78226 46.3927 10.0122 46.2312 10.2317 46.1243C10.7431 45.8743 11.243 45.6039 11.7634 45.3744C12.2244 45.1492 12.7557 45.1152 13.2416 45.2799C13.3226 45.3215 13.3937 45.3802 13.45 45.4518C13.5062 45.5234 13.5464 45.6063 13.5676 45.6948C13.5824 45.7838 13.5769 45.875 13.5517 45.9615C13.5264 46.0481 13.4819 46.1277 13.4216 46.1947C13.1734 46.3847 12.9035 46.5446 12.6178 46.6712C11.9394 47.0056 11.243 47.3075 10.5756 47.6635C10.5175 47.6888 10.4657 47.7265 10.4238 47.774C10.3819 47.8216 10.351 47.8778 10.3332 47.9386C10.3154 47.9994 10.3112 48.0633 10.3209 48.1259C10.3306 48.1885 10.3539 48.2482 10.3892 48.3008C10.5276 48.5193 10.7106 48.7173 11 48.5868C11.3999 48.4068 11.7759 48.1524 12.1883 48.0084C12.4853 47.9142 12.7993 47.8866 13.1081 47.9274C13.1952 47.9495 13.2761 47.9911 13.3446 48.0492C13.4131 48.1072 13.4675 48.1802 13.5036 48.2624C13.5329 48.3484 13.5442 48.4396 13.5366 48.5302C13.5291 48.6208 13.5028 48.7088 13.4596 48.7888C13.3198 48.997 13.1383 49.1738 12.9267 49.3082C12.5582 49.5501 12.1549 49.7391 11.7839 49.9805C11.6363 50.0954 11.509 50.2343 11.4075 50.3915C11.3958 50.4203 11.3916 50.4516 11.3953 50.4825C11.3991 50.5134 11.4107 50.5428 11.429 50.5679C11.5119 50.6499 11.6424 50.7869 11.7104 50.7644C12.2388 50.5934 12.7482 50.359 13.2821 50.206C13.3182 50.1957 13.3556 50.1904 13.3931 50.1905C13.5354 50.201 13.6681 50.2665 13.763 50.373C13.858 50.4796 13.9078 50.6188 13.902 50.7614ZM4.43578 34.217C4.27199 34.2326 4.11189 34.275 3.96187 34.3425C3.9625 34.3952 3.9768 34.4469 4.00336 34.4925C4.08723 34.5732 4.19851 34.6192 4.31489 34.6213C4.43126 34.6233 4.54411 34.5812 4.63075 34.5035C4.66456 34.4676 4.69305 34.427 4.71526 34.383C4.62278 34.3235 4.53027 34.215 4.43779 34.215L4.43578 34.217ZM8.11159 31.2016C8.19977 31.2258 8.28143 31.2693 8.35062 31.3291C8.41981 31.3889 8.47481 31.4634 8.51154 31.5471C8.6051 31.7819 8.61756 32.0412 8.54699 32.2839C8.22655 33.0123 8.6755 33.4432 9.08443 33.9046C9.2159 34.0546 9.47783 34.0281 9.52782 33.8631C9.61731 33.5632 9.69229 33.2633 9.76478 32.9633C9.87276 32.5134 10.0412 32.1135 10.5566 32.0165C10.8886 31.9555 11.131 32.3004 11.235 32.9663C11.245 33.0273 11.23 33.0942 11.24 33.1557C11.3275 33.7236 11.429 33.8442 11.9169 33.8382C13.6836 33.8117 15.4422 33.7571 17.2059 33.5566C19.5869 33.2852 21.9874 33.1937 24.38 33.0228C24.4445 33.0178 24.506 33.0128 24.569 33.0128C24.7585 33.0267 24.9476 32.9808 25.1097 32.8815C25.2718 32.7822 25.3986 32.6346 25.4723 32.4594C25.6568 32.0594 25.8713 31.674 26.1141 31.3066C26.2628 31.1047 26.4634 30.9469 26.6945 30.8497C26.7821 30.8251 26.874 30.8199 26.9637 30.8346C27.0534 30.8493 27.1389 30.8834 27.214 30.9346C27.2857 30.9904 27.3432 31.0623 27.3819 31.1445C27.4206 31.2267 27.4395 31.3168 27.4369 31.4076C27.3064 31.821 27.087 32.2034 26.9305 32.6124C26.9065 32.6764 27.0565 32.8923 27.118 32.8883C27.9928 32.8383 28.8677 32.7723 29.7395 32.6733C29.83 32.6566 29.9152 32.6186 29.9882 32.5626C30.0612 32.5065 30.1199 32.434 30.1594 32.3509C30.4368 31.2541 30.7808 30.1608 30.6268 29.0015C30.6112 28.8468 30.5358 28.7043 30.4166 28.6044C30.2975 28.5045 30.144 28.455 29.989 28.4666C29.863 28.4666 29.739 28.4852 29.611 28.4902C25.9522 28.6366 22.2934 28.7771 18.6356 28.9325C18.0697 28.9555 17.5048 29.0326 16.9429 29.1021C15.6307 29.271 14.3229 29.5055 13.0052 29.61C11.622 29.7174 10.2287 29.7064 8.83948 29.7454C8.83948 29.7319 8.83948 29.7189 8.83948 29.7069C8.27109 29.7069 7.70165 29.6934 7.13326 29.7069C6.18694 29.7334 5.23815 29.7354 4.29683 29.8259C3.57046 29.8929 3.33952 30.1953 3.30953 30.9622C3.31879 31.3329 3.35385 31.7026 3.41449 32.0685C3.8894 31.9805 3.67093 31.4841 3.90188 31.2426C4.11334 31.0202 4.28533 30.7597 4.48429 30.5248C4.50899 30.5047 4.53811 30.4909 4.56923 30.4844C4.60036 30.4778 4.63261 30.4789 4.66327 30.4873C4.69034 30.501 4.71381 30.5208 4.73186 30.5452C4.74991 30.5696 4.76205 30.5979 4.76726 30.6278C4.80175 31.1862 4.82421 31.7445 4.85971 32.3034C4.86271 32.3559 4.92468 32.4159 4.97467 32.4479C4.99517 32.4604 5.08068 32.4174 5.09867 32.3814C5.24215 32.103 5.36412 31.813 5.51559 31.5406C5.66706 31.2681 5.84801 30.9382 6.20094 31.0096C6.30492 31.0316 6.3634 31.4521 6.3784 31.691C6.40039 32.0665 6.35392 32.4449 6.37242 32.8203C6.38906 32.8759 6.41968 32.9264 6.46133 32.9668C6.50298 33.0072 6.55433 33.0363 6.61041 33.0513C6.67001 33.0526 6.72899 33.0394 6.78231 33.0127C6.83563 32.9861 6.88164 32.9468 6.91632 32.8983C7.16277 32.3954 7.36125 31.8685 7.6267 31.3741C7.67941 31.3165 7.74384 31.271 7.81569 31.2406C7.88753 31.2101 7.96512 31.1955 8.04312 31.1976C8.06604 31.1969 8.08896 31.1979 8.11159 31.2016ZM12.8827 17.2203C12.829 17.4285 12.8297 17.6471 12.8848 17.855C12.9399 18.0629 13.0474 18.2532 13.1971 18.4076C13.2366 18.447 13.3286 18.504 13.3516 18.4865C13.4353 18.4299 13.5067 18.357 13.5615 18.2721C13.59 18.2276 13.5726 18.1526 13.5856 17.9357C13.5407 17.6924 13.4809 17.4522 13.4066 17.2163C13.373 17.1663 13.3286 17.1245 13.2767 17.0938C13.2248 17.0632 13.1667 17.0446 13.1067 17.0393H13.0992C13.0509 17.0494 13.0059 17.0711 12.968 17.1027C12.9302 17.1343 12.9012 17.1746 12.8827 17.2203ZM11.3215 16.7204C11.233 17.0703 10.9276 17.3898 11.1385 17.7852C11.1974 17.8918 11.2853 17.9795 11.392 18.0381C11.43 18.0576 11.5879 17.9532 11.6029 17.8882C11.6292 17.7209 11.6411 17.5516 11.6384 17.3822C11.6488 17.1766 11.6457 16.9706 11.6294 16.7654C11.6204 16.6999 11.515 16.6419 11.4405 16.5969C11.3872 16.6235 11.3449 16.6679 11.321 16.7224L11.3215 16.7204ZM9.91172 16.23L10.0322 16.2445L9.98227 16.109L9.91172 16.23ZM29.754 12.0733C29.6537 12.2242 29.5709 12.3861 29.5071 12.5557C29.5495 12.7393 29.6137 12.9172 29.6985 13.0856C29.7381 13.1278 29.788 13.1589 29.8434 13.1759C29.8987 13.1929 29.9574 13.1952 30.0139 13.1825C30.0983 13.1157 30.1675 13.0315 30.2167 12.9357C30.2659 12.8399 30.294 12.7346 30.2992 12.627C30.3044 12.5195 30.2864 12.412 30.2466 12.3119C30.2068 12.2118 30.146 12.1214 30.0684 12.0468C30.031 12.0237 29.9873 12.0131 29.9434 12.0163C29.875 12.0119 29.8074 12.0329 29.7535 12.0753L29.754 12.0733ZM27.7574 12.5357C27.7362 12.5913 27.7264 12.6505 27.7286 12.71C27.7309 12.7694 27.7451 12.8278 27.7704 12.8816C27.7957 12.9355 27.8315 12.9837 27.8758 13.0233C27.9201 13.063 27.972 13.0933 28.0283 13.1125C28.0769 13.1125 28.1246 13.1001 28.167 13.0765C28.2094 13.0529 28.2451 13.0189 28.2708 12.9776C28.3001 12.8042 28.2927 12.6266 28.2492 12.4562C28.2302 12.3862 28.0788 12.3517 27.9768 12.2967C27.9018 12.3752 27.7838 12.4447 27.7568 12.5382L27.7574 12.5357ZM25.9002 12.7246C25.9627 12.7921 26.0202 12.9066 26.0892 12.9121C26.1802 12.9211 26.2781 12.8451 26.3731 12.8061C26.3156 12.7372 26.2596 12.6132 26.2001 12.6117H26.1887C26.0861 12.6318 25.9881 12.6707 25.8997 12.7266L25.9002 12.7246ZM31.4871 12.4817C31.5136 12.5823 31.5485 12.6805 31.5916 12.7751C31.6541 12.7152 31.7161 12.6547 31.7786 12.5952C31.7216 12.5197 31.6631 12.4452 31.6051 12.3732C31.5631 12.4117 31.4817 12.4567 31.4887 12.4837L31.4871 12.4817ZM22.9163 11.3874C22.9613 11.2874 23.0067 11.1875 23.0522 11.09C22.8538 11.1085 22.6943 11.1459 22.9158 11.3884L22.9163 11.3874ZM20.4837 8.15304C20.4662 8.29201 20.5892 8.45047 20.6462 8.59894C20.7546 8.53662 20.8597 8.46872 20.9611 8.39548C21.661 7.85059 21.761 7.53815 21.3726 6.82529C21.2119 6.59164 21.0221 6.37944 20.8077 6.19388C20.6947 6.84925 20.5722 7.49912 20.4833 8.15499L20.4837 8.15304ZM18.7151 5.07208C18.7871 5.12696 18.8464 5.19675 18.889 5.27663C18.9316 5.35652 18.9565 5.44463 18.962 5.53501C18.98 5.96842 18.928 6.40387 18.928 6.83829C18.9427 7.02184 18.9738 7.20365 19.021 7.38164C19.1285 7.20485 19.2242 7.02117 19.3075 6.83176C19.5729 6.11189 20.1268 6.01992 20.7707 6.1104C20.7817 6.00423 20.7673 5.89699 20.7287 5.79747C19.8529 4.70344 18.7676 3.79521 17.5363 3.12598C17.494 3.11412 17.4492 3.11412 17.4068 3.12598C17.5963 3.4971 17.6494 3.92297 17.5568 4.32924C17.4513 4.80925 17.4092 5.30102 17.4313 5.79198C17.4278 5.84797 17.4778 5.90641 17.5033 5.9629C17.5533 5.93441 17.6138 5.91741 17.6438 5.87692C17.7902 5.67696 17.9187 5.466 18.0722 5.27303C18.1227 5.19977 18.1889 5.1387 18.2659 5.09417C18.3429 5.04965 18.4289 5.02283 18.5176 5.01564C18.5872 5.01799 18.655 5.03809 18.7146 5.0741L18.7151 5.07208ZM16.3655 2.72255C16.4615 2.85903 16.5375 3.0855 16.657 3.11249C16.889 3.13888 17.1237 3.13197 17.3538 3.09199C17.3438 2.73306 17.0499 2.60405 16.7785 2.51007C16.7691 2.50699 16.7593 2.50552 16.7495 2.50562C16.646 2.50962 16.4915 2.65703 16.3655 2.72652V2.72255ZM21.536 44.891C21.5127 44.8341 21.5009 44.7731 21.5014 44.7116C21.5018 44.65 21.5144 44.5892 21.5385 44.5326C21.9018 43.6681 22.5771 42.9721 23.4302 42.5829C23.5557 42.5265 23.7751 42.6275 23.9221 42.7065C23.976 42.735 23.9955 42.9369 23.9531 43.0219C23.5485 43.8592 22.9674 44.599 22.2499 45.1905C22.1714 45.256 22.0174 45.2285 21.838 45.253C21.7226 45.1468 21.6211 45.0263 21.536 44.8945V44.891ZM20.2403 43.4703C20.1133 43.3354 20.0315 43.1642 20.0062 42.9806C19.981 42.7971 20.0135 42.6102 20.0993 42.446C20.6172 41.5096 21.3427 40.7042 22.2199 40.0914C22.3731 39.9869 22.5544 39.9316 22.7398 39.9329C22.8828 39.9459 23.0117 40.1099 23.1537 40.2114C23.1037 40.4368 23.1197 40.6613 23.0182 40.7903C22.3309 41.6811 21.63 42.5645 20.9066 43.4263C20.8631 43.4794 20.8086 43.5224 20.7468 43.5522C20.6849 43.5821 20.6174 43.5982 20.5487 43.5993C20.4336 43.5993 20.3231 43.5542 20.2408 43.4738L20.2403 43.4703Z" fill="black"/>
</svg>
