<svg width="36" height="56" viewBox="0 0 36 56" fill="none" xmlns="http://www.w3.org/2000/svg">
<path d="M14.7688 55.4874C13.636 55.4589 12.5067 55.303 11.3749 55.2185C10.999 55.1815 10.6203 55.1805 10.2442 55.2155C9.88975 55.2585 9.51533 55.5979 9.19439 55.2395C8.94824 54.9599 8.76258 54.6325 8.64902 54.2777C7.87317 51.8107 7.1048 49.3437 6.37394 46.8646C5.78506 44.869 5.26715 42.8539 4.68426 40.8567C4.42031 39.9504 4.02986 39.0776 3.78441 38.1658C3.75335 37.9192 3.63044 37.6934 3.44018 37.5336C3.24992 37.3737 3.00634 37.2915 2.75812 37.3034C2.21309 37.3065 1.68764 37.1006 1.28989 36.728C0.892144 36.3553 0.652395 35.8444 0.620035 35.3003C0.378081 33.5546 -0.0898711 31.839 0.0151089 30.0513C0.0126963 29.7994 0.0262481 29.5477 0.0556286 29.2975C0.0816893 29.011 0.192913 28.7388 0.375026 28.516C0.557138 28.2933 0.801769 28.1302 1.07741 28.0477C1.79658 27.8196 2.53683 27.6642 3.28701 27.5838C4.17434 27.5258 5.06619 27.5313 5.95752 27.5368C6.33045 27.5368 6.70388 27.5413 7.07681 27.5368C7.20237 27.5202 7.32978 27.5251 7.45369 27.5513C9.48331 28.2772 11.4379 27.5258 13.4161 27.2569C13.7285 27.2164 14.0435 27.1814 14.3549 27.1319C15.0408 27.0209 15.2247 26.8874 15.3182 26.182C15.4636 24.9926 15.7349 23.8219 16.1276 22.6897C16.144 22.6296 16.1445 22.5662 16.1293 22.5057C16.114 22.4452 16.0835 22.3897 16.0405 22.3445C15.9975 22.2992 15.9436 22.2658 15.884 22.2475C15.8244 22.2292 15.7611 22.2265 15.7002 22.2398C14.7085 22.4236 13.6913 22.4207 12.7007 22.2313C12.4487 22.2165 12.1997 22.1682 11.9603 22.0879C10.0297 21.1305 8.13606 20.1287 6.99028 18.1621C6.51259 17.4142 6.28211 16.5351 6.33141 15.6491C6.41439 14.4993 6.71687 14.0993 7.86865 13.8564C9.60226 13.4698 11.4118 13.6108 13.0647 14.2612C14.7175 14.9115 16.138 16.0415 17.1434 17.5057C17.3224 17.7636 17.5183 18.0094 17.7298 18.2415C17.776 18.2695 17.8286 18.2851 17.8826 18.2869C17.9366 18.2888 17.9902 18.2768 18.0382 18.252C18.1716 18.1202 18.289 17.9733 18.3881 17.8141C19.3165 16.5389 20.2378 15.2606 21.1736 13.9919C21.4531 13.6119 21.4236 13.5205 20.9152 13.421C19.7647 13.2157 18.6784 12.7432 17.7438 12.0417C16.8091 11.3401 16.0522 10.4291 15.5337 9.38178C14.6204 7.43215 13.8295 5.42503 14.006 3.20596C14.0735 2.51781 14.2023 1.83702 14.3909 1.1718C14.4203 1.04717 14.4766 0.930488 14.5559 0.829944C14.6352 0.7294 14.7355 0.64746 14.8499 0.589816C14.9642 0.532173 15.0897 0.50022 15.2177 0.496267C15.3457 0.492315 15.473 0.516455 15.5907 0.566933C16.0761 0.700577 16.5454 0.886793 16.9904 1.12231C18.9228 2.20631 20.6764 3.58193 22.1894 5.20057C22.7963 5.80673 23.2233 6.56928 23.4228 7.40352C23.6224 8.23776 23.5866 9.111 23.3197 9.92617C23.0926 10.4422 23.0064 11.0092 23.0697 11.5694C23.6226 11.6458 24.0021 11.2514 24.4305 11.0275C26.5708 9.90041 29.037 9.55476 31.4046 10.0501C32.1249 10.1675 32.8103 10.4431 33.4113 10.857C34.0123 11.271 34.514 11.8131 34.8805 12.4442C35.3459 13.2305 35.2629 13.6549 34.622 14.2758C33.6312 15.2366 32.3495 15.6311 31.1027 16.053C29.4009 16.5836 27.577 16.5767 25.8792 16.0335C24.9659 15.763 24.1358 15.266 23.4661 14.5887C23.2022 14.3348 22.8918 14.3983 22.6968 14.7472C22.2039 15.6285 21.706 16.5089 21.2801 17.4217C21.1141 17.7766 20.6062 18.1616 21.0171 18.5905C21.3081 18.8904 21.73 18.5545 22.0924 18.5485C22.4649 18.5259 22.8385 18.5677 23.1967 18.672C23.4106 18.7342 23.6043 18.8518 23.758 19.013C23.9118 19.1742 24.0202 19.3731 24.0722 19.5897C24.1243 19.8062 24.1182 20.0327 24.0545 20.2462C23.9908 20.4596 23.8719 20.6525 23.7096 20.8051C23.0709 21.4229 22.2951 21.881 21.4455 22.1418C20.9036 22.3088 20.3553 22.4588 19.8019 22.5832C19.5496 22.6177 19.314 22.7284 19.1264 22.9004C18.9388 23.0725 18.8082 23.2978 18.7521 23.5461C18.5576 24.3394 18.3581 25.1318 18.1782 25.9286C18.1675 26.0532 18.2067 26.1768 18.2871 26.2725C18.3675 26.3682 18.4826 26.4281 18.6071 26.439C20.5647 26.3825 22.5209 26.3285 24.4775 26.2566C25.4223 26.2206 26.3651 26.1406 27.3094 26.0831C28.3182 26.0221 29.3295 25.9921 30.3348 25.8956C31.929 25.7456 32.8179 26.7 33.2728 28.0402C33.5524 28.884 33.6464 29.7783 33.5483 30.6617C33.4573 31.5386 33.4418 32.4219 33.3618 33.3017C33.3256 33.7388 33.2469 34.1712 33.1268 34.5929C32.8689 35.4588 32.377 36.0047 31.3522 35.9332C30.8368 35.8982 30.6618 36.1467 30.6438 36.6011C30.6281 36.854 30.6281 37.1075 30.6438 37.3604C30.8393 39.7135 30.4149 42.0141 30.0619 44.3211C29.6815 46.8121 29.312 49.3056 28.9391 51.7972C29.275 53.3209 28.1053 53.8888 27.134 54.5106C26.3629 54.9541 25.4874 55.1833 24.5979 55.1745C23.5292 55.219 22.4619 55.3405 21.3931 55.4245C21.0156 55.4525 20.6372 55.48 20.2593 55.4805C19.0895 55.4855 17.9187 55.5015 16.7489 55.5015C16.0915 55.5075 15.4312 55.5024 14.7688 55.4874ZM13.902 51.2613C13.893 51.3878 13.859 51.5114 13.802 51.6247C13.6711 51.9057 13.702 52.1331 14.0409 52.1576C14.6054 52.2187 15.1741 52.2305 15.7406 52.1931C17.6843 51.9906 19.6239 51.7562 21.562 51.5082C22.7493 51.3582 23.9306 51.1553 25.1159 50.9848C25.273 50.9715 25.4209 50.9053 25.5354 50.7969C25.6499 50.6886 25.7243 50.5446 25.7462 50.3884C25.8182 50.083 25.9542 49.7886 26.0072 49.4796C26.5246 46.4342 27.0835 43.3927 27.5164 40.3313C27.6184 39.1354 27.6351 37.9338 27.5664 36.7355C27.5683 36.6717 27.5569 36.6081 27.533 36.5489C27.5091 36.4896 27.4733 36.4359 27.4276 36.3912C27.382 36.3465 27.3275 36.3118 27.2678 36.2891C27.2081 36.2665 27.1443 36.2565 27.0805 36.2597C26.6921 36.2627 26.3037 36.2597 25.9142 36.2597C24.7872 36.2344 23.6595 36.2702 22.5363 36.3671C21.2746 36.5011 20.0188 36.5516 18.7571 36.5631C17.8073 36.5731 16.8604 36.5661 15.9121 36.5661C15.9121 36.5336 15.9086 36.5011 15.9061 36.4661C13.3231 36.6216 10.7416 36.7875 8.1576 36.932C5.80805 37.0645 5.83052 36.809 6.83833 39.0601C7.10578 39.66 7.17926 40.4179 7.87512 40.7723C8.35453 40.4803 8.83293 40.1864 9.31534 39.9019C9.57309 39.7189 9.85212 39.5679 10.1462 39.452C10.566 39.3275 10.9988 39.252 11.436 39.2271C11.5952 39.2152 11.7541 39.2531 11.8908 39.3356C12.0275 39.4181 12.1352 39.5411 12.1988 39.6875C12.2406 39.8384 12.231 39.999 12.1714 40.1438C12.1119 40.2886 12.0058 40.4095 11.8699 40.4873C11.547 40.6833 11.187 40.8213 10.8771 41.0332C10.1497 41.5331 9.42137 42.033 8.738 42.5884C8.58499 42.7062 8.48112 42.8766 8.44649 43.0665C8.41186 43.2565 8.44893 43.4525 8.55053 43.6167C8.713 43.9322 8.84598 44.0406 9.08394 43.9141C9.69482 43.5867 10.3007 43.2463 10.9211 42.9384C11.1443 42.8164 11.3904 42.7421 11.6438 42.72C11.8972 42.698 12.1524 42.7288 12.3933 42.8104C12.6064 42.922 12.7688 43.1108 12.8472 43.3383C12.86 43.4294 12.8501 43.5223 12.8182 43.6087C12.7864 43.695 12.7336 43.7722 12.6647 43.8332C12.2983 44.0711 11.8829 44.2296 11.501 44.4456C10.8436 44.815 10.1857 45.1849 9.55132 45.5928C9.29137 45.7613 9.32185 46.3427 9.5623 46.6312C9.78226 46.8926 10.0122 46.7311 10.2317 46.6241C10.7431 46.3742 11.243 46.1037 11.7634 45.8743C12.2244 45.6491 12.7557 45.6151 13.2416 45.7798C13.3226 45.8214 13.3937 45.88 13.45 45.9517C13.5062 46.0233 13.5464 46.1062 13.5676 46.1947C13.5824 46.2837 13.5769 46.3748 13.5517 46.4614C13.5264 46.5479 13.4819 46.6276 13.4216 46.6946C13.1734 46.8846 12.9035 47.0445 12.6177 47.171C11.9394 47.5055 11.243 47.8074 10.5756 48.1633C10.5175 48.1886 10.4657 48.2264 10.4238 48.2739C10.3819 48.3214 10.351 48.3776 10.3332 48.4384C10.3154 48.4992 10.3112 48.5632 10.3209 48.6258C10.3305 48.6884 10.3539 48.7481 10.3892 48.8007C10.5276 49.0192 10.7106 49.2172 11 49.0867C11.3999 48.9067 11.7759 48.6523 12.1883 48.5083C12.4853 48.4141 12.7993 48.3864 13.1081 48.4273C13.1952 48.4494 13.2761 48.491 13.3446 48.5491C13.4131 48.6071 13.4675 48.68 13.5036 48.7623C13.5329 48.8483 13.5442 48.9395 13.5366 49.0301C13.5291 49.1206 13.5028 49.2087 13.4596 49.2887C13.3198 49.4969 13.1383 49.6737 12.9267 49.808C12.5582 50.05 12.1549 50.2389 11.7839 50.4804C11.6363 50.5953 11.509 50.7342 11.4075 50.8913C11.3958 50.9201 11.3916 50.9515 11.3953 50.9824C11.3991 51.0133 11.4107 51.0427 11.4289 51.0678C11.5119 51.1498 11.6424 51.2867 11.7104 51.2642C12.2388 51.0933 12.7482 50.8589 13.2821 50.7059C13.3182 50.6955 13.3556 50.6903 13.3931 50.6904C13.5354 50.7009 13.6681 50.7664 13.763 50.8729C13.858 50.9794 13.9078 51.1187 13.902 51.2613ZM4.43578 34.7169C4.27199 34.7325 4.11189 34.7749 3.96187 34.8424C3.9625 34.8951 3.9768 34.9468 4.00336 34.9924C4.08723 35.0731 4.19851 35.1191 4.31489 35.1211C4.43126 35.1232 4.54411 35.0811 4.63075 35.0034C4.66456 34.9675 4.69304 34.9269 4.71526 34.8829C4.62278 34.8234 4.53027 34.7149 4.43779 34.7149L4.43578 34.7169ZM8.11159 31.7015C8.19977 31.7257 8.28143 31.7692 8.35062 31.829C8.41981 31.8887 8.47481 31.9632 8.51154 32.047C8.6051 32.2818 8.61756 32.5411 8.54699 32.7838C8.22655 33.5122 8.6755 33.9431 9.08443 34.4045C9.2159 34.5545 9.47783 34.528 9.52782 34.363C9.61731 34.063 9.69229 33.7631 9.76478 33.4632C9.87276 33.0133 10.0412 32.6133 10.5566 32.5164C10.8886 32.4554 11.131 32.8003 11.235 33.4662C11.245 33.5272 11.23 33.5941 11.24 33.6556C11.3275 34.2235 11.429 34.344 11.9169 34.338C13.6836 34.3115 15.4422 34.257 17.2059 34.0565C19.5869 33.7851 21.9874 33.6936 24.38 33.5226C24.4445 33.5176 24.506 33.5127 24.569 33.5127C24.7585 33.5266 24.9476 33.4806 25.1097 33.3814C25.2718 33.2821 25.3986 33.1345 25.4723 32.9593C25.6568 32.5593 25.8713 32.1739 26.1141 31.8065C26.2628 31.6046 26.4634 31.4467 26.6945 31.3496C26.7821 31.3249 26.874 31.3198 26.9637 31.3344C27.0534 31.3491 27.1389 31.3833 27.214 31.4345C27.2857 31.4903 27.3432 31.5622 27.3819 31.6444C27.4206 31.7265 27.4395 31.8167 27.4369 31.9075C27.3064 32.3209 27.087 32.7033 26.9305 33.1122C26.9065 33.1762 27.0565 33.3922 27.118 33.3882C27.9928 33.3382 28.8677 33.2722 29.7395 33.1732C29.83 33.1565 29.9152 33.1185 29.9882 33.0625C30.0612 33.0064 30.1198 32.9339 30.1594 32.8508C30.4368 31.754 30.7808 30.6607 30.6268 29.5014C30.6112 29.3467 30.5358 29.2042 30.4166 29.1043C30.2974 29.0044 30.144 28.9549 29.989 28.9665C29.863 28.9665 29.7389 28.985 29.611 28.99C25.9522 29.1365 22.2934 29.2769 18.6356 29.4324C18.0697 29.4554 17.5048 29.5324 16.9429 29.6019C15.6307 29.7709 14.3229 30.0053 13.0052 30.1098C11.622 30.2173 10.2287 30.2063 8.83948 30.2453C8.83948 30.2318 8.83948 30.2188 8.83948 30.2068C8.27109 30.2068 7.70165 30.1933 7.13326 30.2068C6.18694 30.2333 5.23815 30.2353 4.29682 30.3258C3.57046 30.3928 3.33952 30.6952 3.30953 31.462C3.31879 31.8328 3.35385 32.2025 3.41449 32.5683C3.8894 32.4804 3.67092 31.984 3.90188 31.7425C4.11334 31.5201 4.28533 31.2596 4.48429 31.0246C4.50899 31.0046 4.53811 30.9908 4.56923 30.9842C4.60036 30.9777 4.63261 30.9787 4.66327 30.9872C4.69034 31.0009 4.71381 31.0207 4.73186 31.0451C4.74991 31.0695 4.76205 31.0977 4.76726 31.1276C4.80175 31.686 4.82421 32.2444 4.85971 32.8033C4.86271 32.8558 4.92468 32.9158 4.97467 32.9478C4.99517 32.9603 5.08068 32.9173 5.09867 32.8813C5.24215 32.6028 5.36412 32.3129 5.51559 32.0404C5.66706 31.768 5.84801 31.438 6.20094 31.5095C6.30492 31.5315 6.3634 31.952 6.3784 32.1909C6.40039 32.5663 6.35392 32.9448 6.37242 33.3202C6.38906 33.3758 6.41968 33.4262 6.46133 33.4667C6.50298 33.5071 6.55433 33.5362 6.61041 33.5511C6.67001 33.5525 6.72899 33.5393 6.78231 33.5126C6.83563 33.486 6.88164 33.4467 6.91632 33.3982C7.16277 32.8953 7.36125 32.3684 7.6267 31.874C7.6794 31.8164 7.74384 31.7709 7.81569 31.7404C7.88753 31.71 7.96512 31.6953 8.04312 31.6975C8.06604 31.6967 8.08896 31.6978 8.11159 31.7015ZM12.8827 17.7202C12.829 17.9284 12.8297 18.147 12.8848 18.3549C12.9398 18.5628 13.0474 18.753 13.1971 18.9074C13.2366 18.9469 13.3286 19.0039 13.3516 18.9864C13.4353 18.9298 13.5067 18.8569 13.5615 18.772C13.59 18.7275 13.5726 18.6525 13.5856 18.4355C13.5407 18.1923 13.4809 17.9521 13.4066 17.7162C13.373 17.6662 13.3286 17.6243 13.2767 17.5937C13.2248 17.5631 13.1667 17.5445 13.1067 17.5392H13.0992C13.0509 17.5492 13.0059 17.571 12.968 17.6026C12.9302 17.6341 12.9007 17.6745 12.8822 17.7202H12.8827ZM11.3215 17.2203C11.233 17.5702 10.9276 17.8896 11.1385 18.2851C11.1974 18.3917 11.2853 18.4794 11.392 18.538C11.43 18.5575 11.5879 18.453 11.6029 18.3881C11.6292 18.2208 11.6411 18.0515 11.6384 17.8821C11.6488 17.6765 11.6457 17.4704 11.6294 17.2652C11.6204 17.1997 11.515 17.1418 11.4405 17.0968C11.3872 17.1234 11.3449 17.1678 11.321 17.2223L11.3215 17.2203ZM9.91172 16.7299L10.0322 16.7443L9.98227 16.6089L9.91172 16.7299ZM29.7539 12.5731C29.6537 12.7241 29.5709 12.886 29.507 13.0556C29.5495 13.2392 29.6137 13.4171 29.6985 13.5854C29.7381 13.6276 29.788 13.6588 29.8433 13.6758C29.8987 13.6928 29.9574 13.6951 30.0139 13.6824C30.0983 13.6155 30.1675 13.5314 30.2167 13.4356C30.2659 13.3398 30.294 13.2345 30.2992 13.1269C30.3044 13.0193 30.2864 12.9119 30.2466 12.8118C30.2068 12.7117 30.146 12.6213 30.0684 12.5466C30.031 12.5236 29.9873 12.5129 29.9434 12.5161C29.875 12.5118 29.8074 12.5328 29.7535 12.5751L29.7539 12.5731ZM27.7574 13.0356C27.7362 13.0912 27.7264 13.1504 27.7286 13.2098C27.7309 13.2693 27.7451 13.3277 27.7704 13.3815C27.7957 13.4353 27.8315 13.4835 27.8758 13.5232C27.9201 13.5629 27.972 13.5932 28.0283 13.6124C28.0769 13.6124 28.1246 13.6 28.167 13.5764C28.2094 13.5527 28.2451 13.5187 28.2708 13.4775C28.3001 13.3041 28.2927 13.1264 28.2492 12.9561C28.2302 12.8861 28.0788 12.8516 27.9768 12.7966C27.9018 12.8751 27.7838 12.9446 27.7568 13.0381L27.7574 13.0356ZM25.9002 13.2245C25.9627 13.292 26.0202 13.4065 26.0892 13.412C26.1802 13.421 26.2781 13.345 26.3731 13.306C26.3156 13.237 26.2596 13.113 26.2001 13.1115H26.1886C26.086 13.1316 25.9881 13.1706 25.8997 13.2265L25.9002 13.2245ZM31.4871 12.9816C31.5136 13.0822 31.5485 13.1803 31.5916 13.275C31.6541 13.215 31.7161 13.1546 31.7786 13.0951C31.7216 13.0196 31.6631 12.945 31.6051 12.8731C31.5631 12.9116 31.4817 12.9566 31.4887 12.9836L31.4871 12.9816ZM22.9163 11.8873C22.9613 11.7873 23.0067 11.6873 23.0522 11.5899C22.8538 11.6084 22.6943 11.6458 22.9158 11.8883L22.9163 11.8873ZM20.4837 8.65292C20.4662 8.79189 20.5892 8.95034 20.6462 9.09882C20.7546 9.0365 20.8597 8.9686 20.9611 8.89536C21.661 8.35047 21.761 8.03803 21.3726 7.32517C21.2119 7.09152 21.0221 6.87931 20.8077 6.69376C20.6947 7.34913 20.5722 7.99899 20.4833 8.65487L20.4837 8.65292ZM18.7151 5.57196C18.7871 5.62684 18.8464 5.69663 18.889 5.77651C18.9316 5.8564 18.9565 5.94451 18.962 6.03489C18.98 6.4683 18.928 6.90375 18.928 7.33816C18.9427 7.52171 18.9738 7.70353 19.021 7.88152C19.1285 7.70473 19.2242 7.52104 19.3075 7.33164C19.5729 6.61177 20.1268 6.51979 20.7707 6.61028C20.7817 6.50411 20.7673 6.39686 20.7287 6.29735C19.8529 5.20332 18.7676 4.29509 17.5363 3.62586C17.494 3.614 17.4492 3.614 17.4068 3.62586C17.5963 3.99698 17.6494 4.42285 17.5568 4.82912C17.4513 5.30913 17.4092 5.80089 17.4313 6.29186C17.4278 6.34784 17.4778 6.40629 17.5033 6.46278C17.5533 6.43429 17.6138 6.41729 17.6438 6.3768C17.7902 6.17684 17.9187 5.96587 18.0722 5.77291C18.1227 5.69965 18.1889 5.63858 18.2659 5.59405C18.3429 5.54952 18.4289 5.52271 18.5176 5.51551C18.5872 5.51786 18.655 5.53797 18.7145 5.57397L18.7151 5.57196ZM16.3655 3.22243C16.4615 3.35891 16.5375 3.58538 16.657 3.61237C16.889 3.63875 17.1237 3.63184 17.3538 3.59187C17.3438 3.23294 17.0499 3.10393 16.7785 3.00995C16.7691 3.00687 16.7593 3.0054 16.7495 3.00549C16.646 3.00949 16.4915 3.15691 16.3655 3.2264V3.22243ZM21.536 45.3909C21.5127 45.334 21.5009 45.273 21.5014 45.2114C21.5018 45.1499 21.5144 45.0891 21.5385 45.0325C21.9018 44.168 22.5771 43.472 23.4302 43.0828C23.5557 43.0263 23.7751 43.1273 23.9221 43.2063C23.976 43.2348 23.9955 43.4368 23.9531 43.5218C23.5485 44.3591 22.9674 45.0989 22.2499 45.6904C22.1714 45.7558 22.0174 45.7284 21.838 45.7528C21.7226 45.6466 21.6211 45.5262 21.536 45.3944V45.3909ZM20.2403 43.9702C20.1133 43.8352 20.0315 43.6641 20.0062 43.4805C19.981 43.2969 20.0135 43.1101 20.0993 42.9459C20.6172 42.0095 21.3427 41.2041 22.2199 40.5913C22.3731 40.4868 22.5544 40.4315 22.7398 40.4328C22.8828 40.4458 23.0117 40.6098 23.1537 40.7113C23.1037 40.9367 23.1197 41.1612 23.0182 41.2902C22.3309 42.181 21.63 43.0643 20.9066 43.9262C20.8631 43.9793 20.8086 44.0222 20.7468 44.0521C20.6849 44.082 20.6174 44.0981 20.5487 44.0992C20.4336 44.0991 20.3231 44.0541 20.2408 43.9736L20.2403 43.9702Z" fill="#209F2E"/>
</svg>
