<svg width="21" height="15" viewBox="0 0 21 15" fill="none" xmlns="http://www.w3.org/2000/svg">
<path d="M14.7896 0.925025L20.5886 6.67494L20.6371 6.71993C20.8311 6.91234 20.944 7.16609 20.9608 7.4659L20.9598 7.56669C20.9458 7.80418 20.855 8.03107 20.6761 8.23438L20.6085 8.30422L14.7896 14.0749C14.3592 14.5017 13.6634 14.5017 13.2331 14.0749C12.8002 13.6457 12.8002 12.9477 13.2331 12.5185L17.2509 8.53363L1.10291 8.53403C0.494821 8.53403 0 8.04335 0 7.43574C0 6.82812 0.494826 6.33745 1.1029 6.33745L17.1212 6.33705L13.2331 2.48152C12.8002 2.05224 12.8002 1.3543 13.2331 0.925025C13.6634 0.498299 14.3592 0.498299 14.7896 0.925025Z" fill="black"/>
</svg>
