<svg width="22" height="14" viewBox="0 0 22 14" fill="none" xmlns="http://www.w3.org/2000/svg">
<path d="M14.8969 0.320044L20.6959 6.06996L20.7444 6.11495C20.9384 6.30736 21.0513 6.56111 21.0681 6.86092L21.0671 6.96171C21.0531 7.1992 20.9623 7.42609 20.7834 7.6294L20.7158 7.69924L14.8969 13.47C14.4665 13.8967 13.7707 13.8967 13.3404 13.47C12.9075 13.0407 12.9075 12.3427 13.3404 11.9135L17.3582 7.92865L1.21021 7.92905C0.60212 7.92905 0.1073 7.43837 0.1073 6.83076C0.1073 6.22314 0.602126 5.73247 1.2102 5.73247L17.2285 5.73207L13.3404 1.87653C12.9075 1.44726 12.9075 0.749322 13.3404 0.320044C13.7707 -0.106681 14.4665 -0.106681 14.8969 0.320044Z" fill="white"/>
</svg>
