<svg xmlns="http://www.w3.org/2000/svg" width="32" height="24" viewBox="0 0 122.88 108.82">
  <path fill-rule="evenodd" clip-rule="evenodd" d="M3.1,56.47H21.3a3.11,3.11,0,0,1,3.1,3.1v37.2a3.11,3.11,0,0,1-3.1,3.1H3.1A3.11,3.11,0,0,1,0,96.77V59.57a3.11,3.11,0,0,1,3.1-3.1ZM28.42,96.23V60H47.77c6.92,1.24,13.84,5,20.75,9.35H81.2c5.73.34,8.74,6.16,3.17,10-4.45,3.26-10.31,3.07-16.32,2.54-4.15-.21-4.33,5.36,0,5.38,1.5.12,3.13-.23,4.56-.24,7.5,0,13.68-1.44,17.46-7.36L92,75.16l18.85-9.35c9.44-3.1,16.14,6.77,9.19,13.63a247,247,0,0,1-42,24.71c-10.4,6.33-20.81,6.11-31.21,0l-18.4-7.92ZM62,7.65a1.15,1.15,0,0,0-.39-.21.72.72,0,0,0-.32,0,1.11,1.11,0,0,0-.73.38l-2.53,3a1.53,1.53,0,0,1-1.9.37c-.34-.18-.7-.35-1.06-.5s-.79-.31-1.17-.44-.77-.24-1.22-.37-.83-.23-1.22-.32A1.54,1.54,0,0,1,50.3,8.12L49.92,4a1.29,1.29,0,0,0-.12-.42,1.22,1.22,0,0,0-.23-.29.72.72,0,0,0-.32-.17.92.92,0,0,0-.41,0l-5.31.52a1.42,1.42,0,0,0-.41.12,1.17,1.17,0,0,0-.34.28,1.08,1.08,0,0,0-.18.33v0a.89.89,0,0,0,0,.33l.37,3.89a1.54,1.54,0,0,1-1.12,1.63c-.32.11-.68.24-1.09.41s-.76.34-1.08.51l-.06,0c-.34.18-.7.37-1,.57l-.1,0c-.34.2-.67.41-1,.62a1.55,1.55,0,0,1-1.82-.08L32.24,9.57a1.28,1.28,0,0,0-.35-.2.69.69,0,0,0-.3,0,1.31,1.31,0,0,0-.41.13l-.06,0a1.34,1.34,0,0,0-.25.23L27.52,13.8a1.3,1.3,0,0,0-.23.41.87.87,0,0,0,0,.32v.07a.9.9,0,0,0,.1.34l0,.05a1.16,1.16,0,0,0,.24.26l3,2.53A1.52,1.52,0,0,1,31,19.69a11.4,11.4,0,0,0-.49,1,12.37,12.37,0,0,0-.44,1.17c-.12.37-.25.77-.38,1.22s-.23.84-.32,1.22A1.53,1.53,0,0,1,28,25.54l-4.13.38a1.23,1.23,0,0,0-.41.12,1.13,1.13,0,0,0-.3.24.9.9,0,0,0-.17.32,1,1,0,0,0,0,.4l.52,5.31a1.22,1.22,0,0,0,.12.42,1.11,1.11,0,0,0,.27.34,1.35,1.35,0,0,0,.33.18,1.09,1.09,0,0,0,.37,0l3.89-.37A1.53,1.53,0,0,1,30.6,36c.11.32.24.68.41,1.09s.34.76.51,1.08l.06.06c.18.34.37.7.57,1a1.57,1.57,0,0,1-.08,1.82L29.9,42.7a1.23,1.23,0,0,0-.2.35.69.69,0,0,0,0,.3,1.33,1.33,0,0,0,.13.41l0,.06a1.29,1.29,0,0,0,.23.25l4.26,3.56a1.24,1.24,0,0,0,.41.23.84.84,0,0,0,.32,0h.07a.9.9,0,0,0,.34-.1l.05,0a1.15,1.15,0,0,0,.26-.24l2.53-3a1.53,1.53,0,0,1,1.9-.37c.34.18.7.35,1.06.5s.79.31,1.17.44.77.24,1.22.37.83.23,1.22.32A1.53,1.53,0,0,1,45.9,47l.38,4.12a1.2,1.2,0,0,0,.12.41,1.19,1.19,0,0,0,.24.3.94.94,0,0,0,.32.17.91.91,0,0,0,.4,0l5.31-.52a1.26,1.26,0,0,0,.42-.12,1.08,1.08,0,0,0,.29-.23.72.72,0,0,0,.17-.32.89.89,0,0,0,0-.41l-.37-3.89a1.55,1.55,0,0,1,1.12-1.62c.32-.11.68-.24,1.09-.41s.76-.34,1.08-.51a1.58,1.58,0,0,1,2.03.2l2.53,3a1.29,1.29,0,0,0,.35.2.64.64,0,0,0,.3,0,1.38,1.38,0,0,0,.41-.13l.06,0a1.23,1.23,0,0,0,.25-.23l3.56-4.26a1.18,1.18,0,0,0,.23-.41.85.85,0,0,0,0-.32v-.07a.88.88,0,0,0-.1-.34l0-.05a1.15,1.15,0,0,0-.24-.26l-3-2.53a1.52,1.52,0,0,1-.37-1.9c.18-.34.35-.7.5-1.06s.31-.79.44-1.17.24-.77.37-1.22.23-.83.32-1.22a1.56,1.56,0,0,1,1.62-1.12l4.12-.38a1.21,1.21,0,0,0,.41-.12,1.18,1.18,0,0,0,.3-.24.72.72,0,0,0,.17-.32.91.91,0,0,0,0-.4l-.52-5.31a1.19,1.19,0,0,0-.12-.42,1.06,1.06,0,0,0-.23-.34.94.94,0,0,0-.33-.18.87.87,0,0,0-.37,0l-3.89.37a1.54,1.54,0,0,1-1.62-1.12c-.11-.32-.24-.68-.41-1.09s-.34-.76-.51-1.08a1.6,1.6,0,0,1,.2-2.03l3-2.53a1.24,1.24,0,0,0,.2-.35.73.73,0,0,0,0-.3,1.23,1.23,0,0,0-.13-.41l0-.06a1.16,1.16,0,0,0-.23-.25l-4.26-3.56a1.31,1.31,0,0,0-.41-.23.85.85,0,0,0-.32,0h-.07a.88.88,0,0,0-.34.1l-.05,0a1.12,1.12,0,0,0-.26.24l-2.53,3a1.52,1.52,0,0,1-1.9.37c-.34-.18-.7-.35-1.06-.5s-.79-.31-1.17-.44-.77-.24-1.22-.37-.83-.23-1.22-.32A1.54,1.54,0,0,1,61.61,8.08L62,7.65ZM53.46,23.92a7.13,7.13,0,1,1-2.08,5,7.11,7.11,0,0,1,2.08-5Z"/>
</svg>
