<svg width="32" height="24" viewBox="0 0 32 24" fill="none" xmlns="http://www.w3.org/2000/svg">
<path fill-rule="evenodd" clip-rule="evenodd" d="M15.9066 2.28771C16.0434 2.24264 16.1913 2.24264 16.3281 2.28771L26.1803 5.53331C26.3127 5.57094 26.4332 5.64903 26.5219 5.76165L29.1906 9.14761C29.3237 9.31638 29.3656 9.53852 29.3029 9.74333C29.26 9.88349 29.1719 10.0036 29.0547 10.0872L18.7884 13.467L16.6433 10.7454C16.5169 10.585 16.3225 10.4912 16.1168 10.4914C15.9111 10.4916 15.7169 10.5856 15.5908 10.7462L13.4573 13.4627L3.16149 10.0679C3.0571 9.98564 2.97862 9.87308 2.93894 9.74333C2.87629 9.53852 2.91814 9.31638 3.05117 9.14761L5.67191 5.82254C5.75209 5.69318 5.87694 5.59176 6.02969 5.54148L15.9066 2.28771ZM23.8857 6.16666L16.1201 8.72488L8.35172 6.16573L16.1174 3.60751L23.8857 6.16666Z" fill="black"/>
<path d="M18.7628 14.8643L26.6607 12.2642L26.6604 16.5948C26.6604 17.4456 26.1095 18.201 25.2928 18.4701L16.7842 21.2736V13.0681L18.0262 14.6441C18.1998 14.8643 18.4949 14.9525 18.7628 14.8643Z" fill="black"/>
<path d="M15.4508 13.0735V21.2737L6.94207 18.4702C6.12541 18.2011 5.57456 17.4457 5.57451 16.5948L5.57422 12.2524L13.4834 14.8603C13.7518 14.9488 14.0475 14.8602 14.2209 14.6393L15.4508 13.0735Z" fill="black"/>
</svg>
